<?xml version="1.0" standalone="no"?>
<!DOCTYPE svg PUBLIC "-//W3C//DTD SVG 20010904//EN"
 "http://www.w3.org/TR/2001/REC-SVG-20010904/DTD/svg10.dtd">
<svg version="1.0" xmlns="http://www.w3.org/2000/svg"
 width="1024.000000pt" height="1024.000000pt" viewBox="0 0 1024.000000 1024.000000"
 preserveAspectRatio="xMidYMid meet">
<metadata>
Created by potrace 1.16, written by Peter Selinger 2001-2019
</metadata>
<g transform="translate(0.000000,1024.000000) scale(0.100000,-0.100000)"
fill="#000000" stroke="none">
<path d="M4905 9084 c-205 -20 -279 -29 -403 -50 -660 -110 -1288 -398 -1802
-827 -158 -132 -415 -394 -545 -557 -495 -617 -783 -1337 -846 -2115 -15 -187
-7 -604 16 -785 106 -866 475 -1639 1075 -2254 450 -461 925 -760 1560 -983
69 -24 114 -41 101 -39 -14 3 -169 1 -345 -5 -274 -8 -413 -16 -741 -44 -75
-6 -195 -26 -234 -37 -24 -8 -30 -13 -20 -19 11 -7 9 -9 -6 -10 -21 -1 -8 -6
100 -33 53 -14 307 -16 2205 -15 1418 0 2160 3 2190 10 25 6 57 13 72 16 15 3
33 12 39 20 10 11 8 15 -9 20 -12 3 -22 9 -22 14 0 4 -8 7 -17 7 -10 -1 -43 4
-73 10 -30 7 -79 14 -109 17 -30 3 -57 7 -60 9 -3 2 -53 7 -111 11 -58 4 -112
9 -121 10 -8 2 -98 6 -200 10 -101 4 -191 9 -199 11 -8 1 -62 3 -120 4 l-105
1 125 43 c456 160 840 375 1212 678 146 120 390 358 509 499 418 492 726 1137
848 1776 48 249 62 388 68 668 10 470 -47 862 -186 1285 -248 751 -692 1380
-1320 1868 -58 45 -106 80 -108 78 -2 -2 -18 10 -34 25 -17 16 -35 27 -39 24
-4 -3 -11 2 -14 11 -4 9 -9 14 -13 11 -3 -4 -11 1 -18 10 -9 13 -14 13 -20 3
-5 -9 -4 -11 3 -6 7 4 12 3 12 -3 0 -5 20 -24 45 -41 25 -17 45 -29 45 -27 0
3 16 -10 36 -29 20 -18 40 -33 43 -32 18 2 31 -3 29 -11 -2 -5 0 -8 3 -7 4 0
15 -9 25 -21 11 -11 69 -63 129 -114 126 -107 365 -343 415 -409 l34 -45 -35
33 c-19 17 -40 32 -47 32 -7 0 -12 4 -12 9 0 7 -33 21 -60 25 -16 3 -110 79
-115 94 -7 17 -233 191 -423 325 -117 83 -281 181 -289 173 -3 -3 23 -35 58
-71 35 -36 66 -71 68 -78 7 -20 64 -71 186 -168 148 -118 410 -365 466 -439
23 -30 72 -93 109 -140 73 -92 205 -280 196 -280 -3 0 -18 17 -33 39 -15 21
-80 103 -143 181 l-115 142 -102 -106 c-101 -104 -115 -128 -90 -156 6 -8 2
-6 -11 5 l-23 19 -59 -60 -59 -59 70 -90 c311 -397 518 -848 604 -1312 24
-134 24 -135 -8 -139 -34 -3 -45 20 -61 126 -1 9 -5 20 -8 25 -3 6 -9 30 -13
55 -4 25 -12 51 -17 57 -6 7 -8 19 -5 27 3 8 2 16 -4 18 -5 2 -11 18 -14 36
-2 18 -9 40 -16 48 -6 8 -8 14 -4 14 4 0 2 7 -5 15 -7 8 -10 22 -6 30 3 8 1
15 -5 15 -6 0 -9 6 -6 14 3 7 0 19 -6 25 -8 8 -8 11 2 11 7 0 9 5 6 10 -4 6
-11 8 -16 5 -5 -3 -6 2 -2 11 4 11 3 15 -4 11 -7 -5 -9 1 -5 15 4 16 2 19 -8
13 -9 -6 -11 -4 -5 4 4 8 -2 25 -15 43 -13 17 -18 28 -12 24 7 -4 -4 21 -24
56 -19 35 -44 83 -55 108 -11 25 -28 53 -36 63 -9 9 -13 17 -10 17 3 0 -7 27
-24 60 -18 37 -34 58 -41 54 -7 -4 -8 -3 -4 4 10 16 -8 45 -28 48 -10 1 -16
-1 -14 -4 2 -4 33 -66 70 -137 73 -143 161 -352 153 -365 -3 -5 -1 -10 3 -12
11 -4 71 -193 74 -230 1 -16 6 -28 10 -28 4 0 5 -6 2 -13 -3 -8 4 -55 16 -105
11 -51 20 -108 20 -127 0 -35 0 -35 -45 -35 -36 0 -45 4 -46 18 0 15 -1 15 -8
-2 -7 -18 -8 -18 -14 -2 -4 10 -7 32 -8 49 0 18 -5 41 -10 52 -9 20 -8 5 8
-112 l6 -43 63 0 64 0 0 -35 0 -35 -55 0 c-32 0 -55 -4 -55 -11 0 -5 4 -8 9
-5 11 7 23 -22 15 -35 -3 -5 3 -9 13 -10 98 -5 116 -3 121 10 3 8 0 11 -7 7
-6 -4 -11 -2 -11 3 0 6 5 11 11 11 5 0 7 6 4 13 -4 6 0 4 8 -5 17 -22 27 -23
27 -4 0 14 21 26 46 26 9 0 14 -10 14 -28 0 -28 -6 -31 -67 -35 -7 0 -13 -13
-13 -29 l0 -28 -108 0 c-89 0 -109 -3 -109 -15 0 -8 10 -18 21 -21 20 -7 20
-7 -2 -15 -13 -5 -21 -13 -17 -19 4 -6 -1 -7 -11 -3 -10 4 -13 8 -8 10 6 2 8
17 6 33 -3 24 -9 30 -28 30 -23 0 -24 -3 -24 -60 l0 -60 30 0 30 0 0 -98 c0
-55 3 -174 7 -265 l6 -166 60 -3 c62 -3 90 -24 48 -35 -24 -6 -26 -14 -9 -31
9 -9 9 -12 0 -12 -7 0 -12 4 -12 9 0 5 -8 11 -19 14 -14 3 -17 0 -14 -14 5
-16 15 -19 74 -19 38 0 69 4 69 8 0 5 20 6 45 2 l45 -7 1 76 c0 42 3 85 6 96
3 11 6 126 7 255 0 129 2 219 4 199 3 -31 6 -36 23 -32 18 5 19 -1 19 -186 0
-159 -2 -191 -14 -191 -8 0 -17 10 -19 23 -2 12 -5 -3 -6 -34 0 -31 -4 -97 -7
-147 l-7 -90 -38 -10 c-27 -7 -39 -6 -43 2 -3 7 -5 7 -5 -2 -1 -14 7 -17 64
-27 36 -7 38 -8 18 -16 -23 -8 -32 -29 -12 -29 6 0 7 -5 2 -12 -4 -7 -6 -24
-4 -37 1 -14 -1 -21 -7 -17 -10 6 -28 -30 -24 -47 10 -36 -98 -367 -185 -567
-117 -269 -292 -549 -477 -765 -33 -38 -67 -78 -75 -88 -13 -16 -10 -22 39
-65 l53 -48 -31 -24 c-18 -14 -45 -35 -61 -48 -20 -15 -28 -29 -25 -40 5 -13
4 -14 -4 -3 -5 7 -15 10 -22 6 -7 -4 -28 9 -54 34 l-42 42 -55 -51 c-30 -28
-53 -55 -52 -60 2 -6 0 -9 -5 -8 -13 4 -62 -34 -56 -43 3 -5 1 -8 -4 -7 -8 2
-112 -69 -112 -76 0 -2 7 -3 15 -3 8 0 15 4 15 9 0 5 5 6 12 2 6 -4 8 -3 5 3
-4 6 3 19 16 29 l22 19 -19 -22 c-11 -13 -16 -23 -11 -23 16 0 -23 -35 -115
-104 -109 -81 -103 -76 -229 -152 -121 -73 -387 -201 -516 -247 -187 -68 -343
-108 -523 -136 -129 -21 -166 -18 -159 11 5 18 0 18 -86 13 -51 -4 -114 -11
-142 -16 -52 -10 -233 -11 -250 -1 -10 6 -113 16 -180 16 -34 1 -40 -2 -38
-19 2 -20 -2 -20 -75 -14 -147 13 -335 57 -554 130 -165 54 -462 189 -573 260
-45 28 -78 42 -94 40 -9 -2 -12 3 -8 13 5 11 -6 22 -36 37 -23 12 -59 37 -80
55 -20 19 -40 34 -45 34 -4 1 -27 19 -52 42 -39 35 -40 37 -8 15 20 -15 40
-27 44 -27 4 0 18 -10 31 -22 13 -12 23 -16 23 -9 0 7 5 9 12 5 7 -4 8 -3 4 5
-4 6 -12 9 -17 6 -5 -4 -12 1 -15 9 -3 9 -10 13 -15 10 -5 -3 -9 -1 -9 3 0 5
-46 46 -102 91 -57 45 -128 106 -158 135 l-55 54 -43 -41 c-24 -22 -49 -41
-55 -41 -7 0 -28 -12 -47 -26 -57 -42 -66 -45 -40 -12 14 18 33 32 43 32 9 1
17 5 17 11 0 5 16 27 35 49 30 33 33 40 20 51 -8 7 -15 17 -15 23 0 6 3 7 7 4
3 -4 12 -2 19 4 10 8 11 16 3 31 -12 21 -24 16 -24 -10 0 -9 -8 -18 -19 -20
-13 -3 -16 0 -10 10 6 10 5 11 -7 2 -8 -6 -24 -11 -36 -12 -17 0 -22 4 -20 19
2 12 8 24 13 27 21 16 10 37 -72 134 -150 180 -284 386 -395 610 -29 59 -57
104 -62 101 -5 -3 -6 4 -2 17 5 17 4 21 -5 15 -8 -5 -11 -4 -7 2 4 6 -12 60
-34 119 -78 206 -138 424 -159 574 -9 65 -7 70 25 70 26 0 28 -5 40 -89 4 -34
2 -46 -12 -56 -16 -12 -15 -13 4 -19 27 -9 43 -54 93 -261 45 -182 60 -219 60
-141 0 26 4 45 9 42 5 -4 12 0 15 6 3 7 5 -1 3 -19 -2 -18 0 -30 5 -27 4 3 8
-6 8 -19 0 -14 6 -40 14 -58 7 -19 17 -45 20 -59 6 -20 5 -22 -4 -10 -30 41 8
-57 69 -180 126 -253 279 -484 419 -632 23 -24 32 -41 26 -50 -15 -24 -14 -39
4 -29 12 7 23 -1 46 -33 16 -22 38 -47 48 -54 10 -7 16 -17 13 -22 -3 -5 0
-12 6 -16 8 -4 9 -3 5 4 -4 7 -3 12 3 12 6 0 22 -20 37 -45 14 -25 28 -45 31
-45 2 0 1 6 -2 13 -4 6 9 -5 29 -25 20 -21 40 -38 45 -38 5 0 26 -19 47 -42
21 -24 41 -43 45 -43 17 0 128 -89 122 -98 -3 -6 -2 -7 4 -4 13 8 65 -27 56
-39 -4 -5 -1 -3 7 3 11 10 17 10 29 -1 9 -8 21 -16 26 -18 6 -2 9 -6 8 -9 -3
-9 39 2 55 14 7 5 15 7 19 3 3 -3 1 -6 -5 -6 -6 0 -16 -10 -23 -21 -8 -15 -8
-19 0 -15 10 7 16 -6 12 -27 -1 -5 3 -6 9 -2 13 8 52 -19 42 -29 -4 -4 -2 -6
3 -4 17 5 95 -34 88 -45 -3 -6 -1 -7 5 -3 13 8 63 -14 56 -25 -3 -5 3 -6 12
-2 13 5 15 3 9 -7 -5 -9 -4 -11 3 -6 13 8 114 -33 108 -43 -2 -3 6 -7 17 -8
25 -3 45 -7 67 -16 8 -3 38 -13 65 -23 28 -10 65 -26 83 -36 17 -10 32 -15 32
-12 0 4 6 2 13 -4 10 -9 76 -30 114 -38 7 -1 17 4 21 13 7 12 10 12 21 -1 11
-13 53 -30 101 -41 76 -17 109 -30 93 -36 -10 -3 8 -6 40 -5 40 1 60 -3 66
-13 6 -8 16 -11 27 -7 9 4 20 2 23 -3 11 -17 234 -32 431 -29 l195 3 -220 3
c-121 2 -228 6 -237 10 -10 4 117 7 281 7 165 0 297 -3 294 -8 -2 -4 15 -7 39
-6 38 1 40 2 18 10 -19 6 -11 8 28 5 30 -2 48 0 41 5 -8 5 2 10 27 15 48 8 76
22 69 34 -7 11 6 15 128 40 292 59 699 232 977 414 123 81 304 220 351 271 29
30 142 124 184 151 26 17 28 17 22 2 -3 -10 -2 -20 2 -22 15 -10 20 7 9 28 -7
11 -11 28 -10 37 3 18 -60 77 -66 61 -5 -17 -140 -148 -188 -183 -25 -19 -71
-56 -102 -83 -204 -174 -446 -318 -718 -427 -269 -108 -450 -155 -629 -163
-50 -3 -171 -9 -270 -15 -310 -17 -630 8 -895 70 -389 91 -828 309 -1148 570
-57 46 -120 96 -140 111 -20 15 -63 52 -96 82 l-58 54 -49 -45 c-27 -25 -52
-44 -54 -41 -3 3 19 25 49 49 30 24 55 48 56 52 0 4 -16 26 -36 47 -86 92
-313 396 -333 444 -2 6 -13 19 -23 31 -11 11 -53 88 -95 170 -41 83 -85 168
-98 190 -25 46 -45 110 -75 250 -12 55 -30 134 -41 176 -10 41 -19 80 -19 86
0 6 27 14 60 18 l60 7 0 34 c0 34 0 34 -49 34 -100 0 -171 12 -172 29 0 9 -3
11 -5 6 -2 -6 -21 -9 -43 -7 l-38 4 -7 81 c-3 45 -5 183 -4 307 l1 225 7 -282
c4 -156 10 -286 14 -290 13 -13 246 -16 246 -3 0 6 -4 8 -10 5 -5 -3 -10 -1
-10 4 0 6 -9 11 -21 11 -19 0 -31 18 -29 44 0 5 40 8 90 7 l89 -2 -1 55 c-2
53 -3 56 -28 56 -14 0 -31 -5 -38 -12 -9 -9 -11 50 -8 270 l3 282 -104 0 -104
0 3 28 3 27 105 0 c91 0 105 2 108 17 2 10 -1 25 -6 34 -8 15 -12 14 -26 -12
-15 -28 -16 -29 -22 -6 -4 14 -14 22 -28 22 -48 0 -66 11 -66 41 0 29 0 29 61
29 57 0 60 1 57 23 -3 19 -10 22 -54 25 l-51 3 9 47 c4 26 6 52 3 59 -2 7 -1
13 4 13 9 0 21 49 27 120 3 24 9 47 14 50 5 3 11 21 14 40 8 62 18 100 26 95
5 -3 6 5 2 17 -4 16 -2 19 8 13 8 -5 11 -4 6 3 -10 17 14 113 47 182 17 36 31
68 31 72 1 3 4 10 9 14 4 4 7 16 7 26 0 10 5 18 10 18 6 0 10 4 10 10 0 12 91
154 102 158 4 2 6 8 2 13 -3 5 0 9 6 9 6 0 9 4 5 10 -3 5 3 18 15 30 11 11 18
20 15 20 -3 0 18 37 46 83 29 45 58 93 65 106 7 13 45 62 86 108 40 46 90 105
110 131 l38 47 -42 42 c-39 40 -63 50 -63 27 0 -17 -16 -34 -26 -29 -8 6 -13
-9 -10 -28 1 -5 -3 -6 -9 -2 -5 3 -10 -3 -10 -13 0 -11 -11 -27 -25 -36 -14
-9 -23 -21 -20 -26 3 -5 0 -12 -6 -16 -8 -5 -10 -2 -5 7 30 57 -129 -165 -203
-283 -84 -133 -266 -497 -278 -553 -1 -5 -11 -34 -21 -62 -11 -29 -18 -53 -15
-53 3 0 1 -6 -5 -12 -16 -21 -74 -238 -88 -333 -3 -22 -8 -44 -11 -48 -3 -5 3
-4 13 1 17 9 19 6 16 -33 -4 -39 -7 -43 -33 -47 -26 -4 -29 -2 -29 25 0 47 55
281 98 417 80 251 206 523 332 718 67 105 220 311 245 332 14 12 10 19 -42 74
l-58 60 59 -53 59 -52 39 38 c22 21 36 44 33 51 -4 11 1 13 20 8 14 -4 25 -3
25 2 0 5 11 14 25 20 20 9 24 17 21 38 -3 15 -7 29 -10 31 -3 3 2 12 10 21 11
11 12 17 4 22 -8 5 -6 9 5 14 11 4 15 12 11 24 -5 13 -2 12 12 -4 l18 -22 150
125 c82 68 205 162 274 207 131 88 340 209 377 220 18 6 21 12 17 44 -5 37 -5
37 10 12 8 -14 13 -27 11 -31 -2 -3 51 17 118 44 227 91 501 164 782 208 39 6
202 13 364 16 161 3 288 9 281 13 -7 4 0 10 19 13 19 4 31 13 31 22 0 9 12 18
30 22 17 3 33 10 36 14 3 5 15 9 27 9 13 0 29 9 37 20 9 12 27 20 45 21 48 2
-98 26 -232 38 -508 46 -999 -33 -1496 -241 -414 -172 -749 -400 -1063 -720
-418 -426 -698 -926 -850 -1522 -19 -72 -31 -108 -27 -81 9 77 57 268 99 390
99 297 200 499 387 780 81 121 108 157 206 275 254 307 623 597 1004 791 121
61 147 78 147 96 0 25 15 39 26 22 9 -16 46 -6 224 56 254 89 529 154 740 175
131 13 162 19 154 31 -3 5 0 9 6 9 6 0 9 4 6 9 -4 5 0 12 6 15 10 5 10 7 1 12
-7 3 -9 13 -6 22 3 9 3 14 -1 10 -5 -4 -19 5 -32 19 -26 28 -31 38 -13 27 16
-9 -6 29 -25 45 -9 8 -13 17 -10 22 3 5 0 9 -6 9 -7 0 -10 6 -7 14 4 9 -5 22
-23 33 -15 10 -29 23 -29 28 0 6 -15 12 -33 15 -21 4 13 10 97 18 214 21 217
22 211 39 -3 8 -6 16 -6 19 0 2 -16 11 -36 19 -43 18 -184 20 -354 4 -63 -6
-176 -12 -250 -14 -131 -5 -134 -4 -115 14 45 43 321 102 570 122 159 13 491
8 724 -11 74 -5 136 -8 138 -6 4 4 -90 19 -233 37 -81 10 -547 20 -619 13z
m-1715 -615 c-14 -11 -65 -53 -114 -92 -219 -176 -369 -309 -506 -447 -285
-288 -398 -424 -617 -744 -55 -81 -100 -132 -107 -125 -15 14 85 201 206 384
87 131 269 359 371 464 142 144 402 363 519 434 29 18 85 53 123 77 104 67
108 69 130 69 18 0 18 -1 -5 -20z m4261 -196 c13 -16 12 -17 -3 -4 -10 7 -18
15 -18 17 0 8 8 3 21 -13z m-4285 -26 c-16 -12 -68 -51 -115 -86 -47 -35 -104
-81 -126 -102 -22 -20 -89 -82 -150 -137 -324 -295 -565 -601 -791 -1007 -22
-38 -78 -153 -125 -255 -47 -102 -91 -196 -97 -210 l-12 -25 6 25 c13 51 78
209 138 335 170 357 402 688 681 974 163 167 379 352 535 459 76 52 110 70 56
29z m4638 -493 c3 -8 2 -12 -4 -9 -6 3 -10 10 -10 16 0 14 7 11 14 -7z m-4858
-206 l29 -33 -32 29 c-31 28 -38 36 -30 36 2 0 16 -15 33 -32z m4725 -275 c13
-16 12 -17 -3 -4 -10 7 -18 15 -18 17 0 8 8 3 21 -13z m-4766 -3 c3 -5 1 -10
-4 -10 -6 0 -11 5 -11 10 0 6 2 10 4 10 3 0 8 -4 11 -10z m5225 -70 c6 -11 8
-20 6 -20 -3 0 -10 9 -16 20 -6 11 -8 20 -6 20 3 0 10 -9 16 -20z m-5714 -724
c-21 -49 -28 -46 -9 4 9 22 18 38 20 36 2 -2 -3 -20 -11 -40z m-276 -837 c5
-44 5 -44 48 -47 23 -2 42 -7 42 -12 0 -12 -46 -24 -59 -15 -15 9 -51 -13 -51
-31 0 -8 7 -17 15 -20 26 -11 17 -33 -12 -31 -16 1 -28 8 -27 15 1 6 2 24 3
38 0 14 5 22 11 19 6 -3 10 -1 10 4 0 6 -5 11 -11 11 -10 0 -11 95 -1 113 10
20 27 -3 32 -44z m6017 19 c-3 -8 -6 -5 -6 6 -1 11 2 17 5 13 3 -3 4 -12 1
-19z m26 -191 c-7 -54 -13 -60 -13 -14 0 30 -4 37 -20 37 -25 0 -27 17 -2 22
33 8 40 -2 35 -45z m-6128 -312 c0 -102 -3 -185 -7 -185 -5 0 -8 83 -8 185 0
102 3 185 8 185 4 0 7 -83 7 -185z m5832 -12 c-2 -37 -3 -9 -3 62 0 72 1 102
3 68 2 -34 2 -93 0 -130z m-5467 -248 c0 -19 -4 -35 -10 -35 -5 0 -10 16 -10
35 0 19 5 35 10 35 6 0 10 -16 10 -35z m-45 -225 c3 -5 2 -10 -4 -10 -6 0 -8
-7 -5 -15 4 -9 0 -15 -10 -15 -9 0 -16 5 -16 11 0 5 -4 7 -10 4 -5 -3 -10 3
-10 14 0 16 6 21 24 21 14 0 28 -4 31 -10z m-165 -60 c0 -5 -4 -10 -10 -10 -5
0 -10 5 -10 10 0 6 5 10 10 10 6 0 10 -4 10 -10z m200 -690 c0 -13 -1 -13 -10
0 -5 8 -10 22 -10 30 0 13 1 13 10 0 5 -8 10 -22 10 -30z m28 -65 c-3 -3 -9 2
-12 12 -6 14 -5 15 5 6 7 -7 10 -15 7 -18z m5435 -928 c-132 -165 -229 -269
-356 -384 -134 -119 -398 -327 -482 -378 -52 -32 -14 0 85 71 187 133 399 314
469 399 14 17 68 73 121 125 52 52 113 116 134 143 21 26 40 47 43 47 2 0 -4
-10 -14 -23z m-693 -61 c0 -2 -8 -10 -17 -17 -16 -13 -17 -12 -4 4 13 16 21
21 21 13z m-4014 -107 c19 -22 19 -22 -3 -8 -13 8 -23 17 -23 21 0 12 6 9 26
-13z m4624 -112 c0 -2 -19 -21 -42 -42 l-43 -40 40 43 c36 39 45 47 45 39z
m-805 -513 c-26 -20 -55 -36 -55 -30 0 5 63 46 70 46 3 -1 -4 -8 -15 -16z
m-65 -39 c0 -2 -10 -9 -22 -15 -22 -11 -22 -10 -4 4 21 17 26 19 26 11z m-55
-35 c-3 -5 -12 -10 -18 -10 -7 0 -6 4 3 10 19 12 23 12 15 0z"/>
<path d="M5795 9020 c17 -4 41 -8 55 -8 22 0 22 1 -5 8 -16 4 -41 8 -55 8 -22
0 -22 -1 5 -8z"/>
<path d="M5888 9003 c6 -2 18 -2 25 0 6 3 1 5 -13 5 -14 0 -19 -2 -12 -5z"/>
<path d="M5938 8993 c7 -3 16 -2 19 1 4 3 -2 6 -13 5 -11 0 -14 -3 -6 -6z"/>
<path d="M6030 8970 c34 -11 60 -11 35 0 -11 5 -29 8 -40 8 -16 0 -15 -2 5 -8z"/>
<path d="M6098 8953 c7 -3 16 -2 19 1 4 3 -2 6 -13 5 -11 0 -14 -3 -6 -6z"/>
<path d="M6840 8656 c0 -2 7 -7 16 -10 8 -3 12 -2 9 4 -6 10 -25 14 -25 6z"/>
<path d="M7010 8570 c0 -13 18 -22 24 -11 3 5 -1 11 -9 15 -8 3 -15 1 -15 -4z"/>
<path d="M7044 8548 c-4 -7 -4 -10 1 -6 4 4 14 0 22 -10 13 -15 13 -15 3 6
-12 25 -16 27 -26 10z"/>
<path d="M7090 8514 c0 -2 9 -8 20 -14 15 -8 18 -8 14 3 -4 11 -34 21 -34 11z"/>
<path d="M7144 8489 c1 -7 10 -13 19 -15 9 -1 15 2 11 7 -3 5 -9 7 -14 4 -4
-3 -11 0 -13 5 -3 6 -4 5 -3 -1z"/>
<path d="M4908 8295 c-5 -5 -159 -26 -186 -26 -13 1 -21 -3 -18 -7 2 -4 -11
-6 -30 -4 -19 2 -40 0 -47 -6 -7 -6 -37 -14 -67 -18 -30 -4 -61 -12 -69 -18
-12 -9 -13 -8 -7 3 6 9 2 9 -16 -3 -13 -8 -38 -16 -56 -18 -19 -1 -36 -6 -38
-10 -3 -5 -9 -6 -13 -4 -4 3 -47 -8 -95 -24 -49 -17 -92 -27 -97 -24 -5 3 -19
-1 -31 -8 -13 -6 -28 -13 -34 -14 -6 -1 -31 -11 -55 -22 -97 -46 -131 -75
-137 -121 -3 -22 -1 -23 33 -18 21 3 33 2 30 -4 -10 -15 9 -11 86 22 41 17 97
39 124 49 28 11 70 27 95 36 50 19 48 18 292 68 191 39 205 40 228 26 12 -7
11 -12 -9 -29 -22 -19 -23 -21 -5 -28 25 -9 141 -9 177 0 23 6 27 11 17 22 -6
7 -10 26 -8 42 3 27 6 28 73 35 39 4 118 4 176 1 114 -6 118 -5 124 47 3 25 0
30 -28 36 -18 4 -35 7 -39 6 -5 -1 -8 3 -8 8 0 10 -352 14 -362 5z"/>
<path d="M4962 8074 c1 -5 -4 -20 -11 -32 -7 -13 -11 -25 -9 -26 2 -1 80 0
173 2 157 3 171 5 172 22 2 17 -10 18 -150 19 -95 1 -156 6 -165 13 -7 6 -12
7 -10 2z"/>
<path d="M4739 8051 c-13 -10 -31 -21 -39 -24 -18 -6 13 -9 80 -8 80 2 122 12
116 26 -3 9 4 15 17 18 12 2 -17 4 -64 5 -71 1 -91 -2 -110 -17z"/>
<path d="M5378 8033 c12 -2 30 -2 40 0 9 3 -1 5 -23 4 -22 0 -30 -2 -17 -4z"/>
<path d="M3780 7959 c-30 -16 -63 -28 -72 -26 -9 3 -15 0 -12 -7 2 -6 -11 -20
-28 -31 -90 -54 -107 -63 -112 -58 -3 4 -6 1 -6 -6 0 -8 -7 -11 -15 -7 -8 3
-15 1 -15 -5 0 -6 -7 -9 -15 -6 -8 4 -17 1 -21 -5 -5 -7 -2 -8 6 -3 9 5 11 4
6 -3 -4 -7 -15 -12 -24 -12 -10 0 -23 -9 -30 -20 -7 -11 -19 -20 -27 -20 -8 0
-15 -3 -15 -8 0 -4 -9 -13 -21 -20 -17 -11 -20 -11 -13 0 9 15 -29 -16 -64
-52 -13 -14 -20 -18 -16 -10 9 19 -25 -9 -84 -70 -25 -25 -39 -36 -32 -25 7
11 -3 4 -21 -16 -19 -20 -44 -41 -57 -48 -12 -7 -20 -16 -17 -20 5 -9 -24 -26
-38 -22 -5 1 -6 -3 -3 -8 4 -5 -1 -14 -11 -19 -14 -9 -15 -14 -5 -34 7 -12 10
-15 7 -5 -2 10 -1 15 4 12 17 -10 5 -58 -19 -77 -12 -10 -18 -18 -13 -18 5 0
14 5 21 12 18 18 28 0 13 -25 -14 -22 -14 -22 8 -3 11 11 21 15 21 11 0 -5 35
27 78 71 42 44 104 97 137 118 33 21 80 55 105 75 24 19 40 29 36 21 -5 -8 4
-1 21 15 41 42 236 175 323 220 25 13 60 36 79 52 33 28 33 29 21 71 -7 23
-16 42 -19 42 -3 0 -31 -14 -61 -31z m-390 -343 c0 -2 -8 -10 -17 -17 -16 -13
-17 -12 -4 4 13 16 21 21 21 13z m-297 -266 c-14 -17 -29 -28 -31 -25 -6 6 38
55 50 55 4 0 -4 -14 -19 -30z"/>
<path d="M4635 7959 c-200 -35 -486 -121 -526 -158 -34 -32 -153 -85 -198 -87
-49 -3 -181 -73 -343 -181 -95 -63 -97 -65 -95 -101 1 -23 -3 -37 -10 -38 -7
-1 -18 -2 -24 -3 -8 -1 -7 -6 1 -17 11 -12 11 -15 1 -12 -8 2 -15 -6 -17 -17
-1 -11 -16 -31 -31 -44 -15 -13 -62 -56 -103 -95 -41 -40 -79 -74 -85 -77 -5
-2 -9 -8 -7 -12 1 -5 -2 -6 -8 -2 -10 6 -114 -48 -125 -65 -3 -4 -13 -6 -23
-4 -17 5 -74 -54 -101 -104 -7 -13 -27 -37 -44 -54 -18 -17 -25 -27 -17 -22 9
5 4 -1 -10 -14 -14 -12 -24 -29 -22 -38 2 -9 -1 -13 -6 -10 -5 3 -26 -20 -47
-50 -20 -31 -31 -53 -25 -49 7 4 5 -6 -4 -24 -9 -17 -19 -31 -22 -31 -2 0 1
10 7 23 9 17 9 20 -1 10 -7 -6 -14 -22 -15 -35 -2 -13 -21 -62 -44 -109 -44
-91 -56 -143 -32 -144 20 0 26 -24 7 -31 -9 -3 -13 -10 -10 -15 3 -5 -1 -9 -9
-9 -8 0 -17 -9 -20 -20 -3 -11 -1 -18 3 -15 4 3 6 -4 3 -15 -3 -11 -8 -18 -12
-16 -3 2 -7 -6 -7 -17 -1 -12 -18 -69 -38 -126 -19 -57 -39 -120 -42 -140 -4
-20 -9 -30 -12 -22 -3 8 -12 -2 -23 -25 -13 -28 -18 -61 -17 -119 0 -58 2 -72
8 -50 4 17 5 -33 2 -109 -4 -107 -2 -137 7 -132 6 4 19 2 28 -6 12 -9 15 -9 9
0 -4 8 -1 12 9 12 12 0 15 -5 11 -16 -3 -9 -6 -22 -6 -30 0 -8 -3 -13 -7 -13
-34 6 -53 -3 -53 -23 0 -23 1 -23 165 -23 l165 0 0 78 c0 76 0 77 25 77 29 0
35 -26 8 -33 -13 -3 -14 -5 -3 -6 13 -1 15 -24 12 -155 l-3 -154 25 2 c14 0
26 5 26 9 0 5 5 5 10 2 6 -3 10 -1 10 5 0 6 4 9 9 5 5 -3 12 -1 15 4 4 5 1 13
-5 17 -8 5 -9 3 -4 -6 6 -9 4 -11 -4 -6 -13 9 -6 21 12 21 7 1 10 7 9 15 -2 8
0 12 4 8 4 -4 13 -3 20 3 8 7 14 6 20 -2 4 -7 3 -9 -4 -5 -6 3 -13 2 -17 -4
-4 -6 4 -9 19 -8 13 1 23 5 20 9 -2 4 0 10 6 14 6 4 7 11 4 17 -5 7 -2 9 7 6
8 -3 23 0 33 8 11 7 24 10 30 7 6 -4 5 1 -3 10 -9 12 -10 17 -2 17 7 0 10 4 7
8 -3 5 1 9 9 9 8 0 12 -4 9 -9 -10 -16 5 -8 27 15 12 12 19 17 15 10 -3 -6 -2
-14 4 -18 5 -3 10 0 10 8 0 9 9 14 23 13 26 -2 87 24 87 36 0 5 5 6 10 3 6 -4
18 -1 27 7 9 7 14 8 11 3 -4 -6 3 -12 15 -12 15 -2 18 0 8 6 -9 6 -10 11 -2
15 6 4 16 4 21 1 6 -4 10 8 10 29 l0 35 -77 4 -78 3 76 2 c76 2 77 2 82 32 4
16 7 190 7 386 0 197 2 360 5 362 3 3 5 -92 5 -211 0 -133 4 -217 10 -217 5 0
7 -8 3 -17 -5 -15 -3 -15 11 2 10 11 15 14 11 8 -4 -9 -1 -11 9 -7 9 3 13 10
10 15 -5 8 42 34 57 31 3 -1 5 14 3 33 -2 27 1 35 14 35 13 0 14 2 3 9 -9 6
-10 14 -4 27 6 11 9 36 7 57 -2 23 1 37 9 37 8 0 8 3 -2 9 -8 5 -9 11 -3 15 7
4 7 17 2 36 -5 17 -6 30 -2 31 4 1 -4 5 -18 9 -23 7 -23 8 10 10 19 1 38 2 43
1 4 0 7 106 7 236 l0 238 40 33 c21 17 45 32 52 32 7 0 0 -8 -17 -18 -16 -11
-36 -26 -42 -34 -15 -18 -21 -168 -22 -583 l-1 -300 -96 3 c-95 3 -96 3 -92
-20 3 -20 8 -23 48 -22 83 2 125 8 132 19 9 11 10 -266 8 -1364 l-1 -754 37
-38 38 -39 285 0 c156 0 282 -2 279 -5 -3 -3 -135 -6 -294 -5 l-288 0 -33 32
-33 32 0 255 c0 169 -4 251 -10 241 -5 -8 -10 -40 -11 -70 l-2 -55 -7 45 c-4
25 -8 38 -9 30 -1 -13 -3 -13 -10 0 -6 8 -7 18 -4 24 4 5 -1 7 -10 3 -10 -4
-17 -2 -17 4 0 6 -7 8 -16 5 -9 -4 -23 -1 -30 5 -11 9 -14 8 -14 -1 0 -8 -3
-10 -7 -7 -16 16 -33 -33 -34 -103 -2 -60 -4 -49 -10 55 -3 72 -7 157 -8 190
l-1 59 -49 -84 c-91 -159 -118 -200 -126 -192 -5 4 -5 2 -1 -5 3 -6 -4 -22
-16 -34 -13 -12 -17 -18 -9 -14 10 6 12 4 7 -4 -5 -7 -11 -10 -14 -7 -3 3 -13
-1 -23 -10 -13 -12 -19 -12 -25 -3 -5 8 -3 10 6 4 9 -5 11 -4 6 4 -6 9 -11 9
-23 -1 -27 -23 -86 -46 -106 -42 -15 2 -18 -1 -14 -16 3 -13 1 -18 -6 -13 -6
4 4 -20 23 -53 59 -103 80 -144 73 -144 -3 0 0 -8 7 -17 7 -10 -7 3 -31 29
-24 26 -51 48 -59 50 -8 2 -18 8 -22 13 -4 6 -8 1 -8 -10 0 -17 -2 -17 -17 5
-32 47 -41 52 -48 30 -5 -16 -9 -18 -25 -8 -10 7 -16 16 -14 20 3 4 -6 8 -21
8 -14 0 -28 7 -31 15 -4 8 -10 13 -14 10 -5 -3 -26 26 -48 63 -96 168 -211
494 -180 514 10 6 10 8 1 8 -16 0 -6 27 13 34 8 3 12 2 9 -3 -3 -5 0 -13 6
-17 7 -4 9 -3 5 4 -3 6 -2 13 4 17 6 4 8 11 4 16 -3 5 -10 7 -15 3 -6 -3 -5 3
2 14 7 12 21 23 31 25 15 4 17 12 12 54 -4 35 -3 44 5 33 7 -10 11 -11 11 -2
0 20 -4 27 -15 24 -5 -2 -7 0 -3 4 4 4 2 14 -5 22 -8 11 -8 14 0 9 6 -4 14 -3
17 2 4 5 -2 12 -11 14 -15 4 -15 5 -2 6 9 0 22 -6 29 -14 10 -12 9 -15 -6 -16
-15 0 -15 -2 -4 -6 8 -4 22 -14 31 -24 9 -10 19 -16 22 -13 3 4 9 -7 12 -22
13 -57 27 -94 35 -94 4 0 6 -10 2 -22 -3 -13 -1 -19 5 -15 6 4 9 -4 7 -21 -2
-15 -1 -21 2 -14 5 10 10 10 25 -4 15 -13 19 -14 19 -3 0 11 2 11 11 -1 9 -13
10 -13 6 0 -2 8 -11 14 -19 12 -17 -3 -31 35 -17 44 5 3 9 2 8 -3 -5 -27 1
-33 22 -23 11 7 18 18 15 25 -3 8 0 17 6 21 6 4 8 3 5 -3 -4 -6 0 -19 8 -29
11 -13 15 -15 13 -4 -2 8 2 14 9 13 7 -2 10 4 7 12 -4 8 -2 15 2 16 48 5 119
7 287 9 l197 2 0 104 0 104 -221 0 c-133 0 -228 4 -240 10 -18 10 -19 23 -19
205 0 163 -3 196 -16 209 -8 9 -20 16 -25 16 -5 0 -10 -92 -11 -207 l-3 -208
-162 -3 -163 -2 0 -30 c0 -32 -30 -44 -30 -12 -1 9 -7 2 -16 -17 -25 -58 -19
-163 15 -284 64 -223 176 -505 263 -661 321 -572 836 -1000 1464 -1214 231
-79 302 -94 481 -99 89 -3 173 -3 186 1 24 6 25 9 26 104 2 91 1 98 -18 99
-16 1 -21 -6 -24 -40 -3 -39 -4 -39 -5 11 l-2 52 55 0 55 0 0 105 0 106 147
-3 147 -3 -3 -105 -2 -105 50 3 c28 2 51 0 51 -5 0 -5 -19 -10 -42 -12 -23 -1
-44 -3 -46 -5 -1 -2 -4 -42 -6 -90 -4 -79 -3 -86 15 -86 24 0 32 31 27 109 -1
34 0 61 5 61 4 0 7 -36 7 -80 l0 -80 43 0 c23 0 73 7 112 15 81 17 98 18 91 6
-5 -8 -66 -23 -100 -25 -18 -2 -17 -26 1 -27 131 -7 217 0 314 24 547 135
1000 409 1370 827 46 52 99 113 118 135 l33 40 -28 -40 c-51 -73 -79 -110 -87
-116 -5 -3 -7 -9 -5 -12 1 -3 -14 -24 -35 -46 -33 -35 -33 -49 0 -28 17 11 58
18 49 9 -4 -4 -13 -7 -19 -7 -7 0 -12 -7 -12 -15 -1 -8 -5 -14 -11 -13 -6 1
-23 -9 -40 -23 -20 -17 -23 -22 -9 -17 18 6 18 5 6 -10 -7 -9 -18 -14 -25 -10
-6 3 -8 2 -3 -2 4 -5 -12 -29 -35 -54 -24 -25 17 13 90 84 306 299 537 671
667 1070 4 14 2 12 -9 -5 -18 -29 -19 -26 -7 18 l10 32 -38 0 c-20 0 -42 -5
-49 -12 -9 -9 -12 -9 -11 2 1 19 27 88 28 75 1 -5 6 -3 12 5 8 12 9 8 7 -15
-3 -26 1 -30 24 -33 35 -4 42 10 83 193 7 27 8 28 15 10 7 -15 9 -16 9 -4 1 9
4 30 7 47 6 28 4 31 -27 37 -29 7 -31 9 -14 15 18 7 18 8 -7 15 -16 4 -25 11
-22 16 3 5 -2 6 -11 2 -21 -7 -34 12 -36 52 0 17 -3 24 -6 18 -2 -7 -9 -13
-14 -13 -6 0 -7 4 -4 10 3 6 -1 7 -9 4 -10 -4 -16 -1 -16 9 0 21 -74 33 -220
36 -63 1 -115 3 -116 4 -2 3 -17 368 -16 391 1 17 -1 17 -13 5 -11 -11 -16
-62 -22 -214 l-8 -200 -241 -9 -242 -9 -7 -244 c-4 -134 -5 -246 -3 -249 3 -2
68 -5 144 -6 l139 -1 38 -38 37 -37 0 -163 0 -164 25 44 c14 24 33 51 43 58
11 9 11 12 2 7 -10 -5 -9 0 4 14 11 12 15 22 11 22 -5 0 2 12 16 27 13 14 18
23 12 19 -7 -4 -13 -2 -13 3 0 6 5 11 10 11 6 0 10 6 10 13 0 6 20 66 45 132
44 118 101 306 107 355 l3 25 -292 5 c-270 5 -294 6 -310 24 -17 18 -17 19 2
11 19 -8 326 -22 517 -24 l86 -1 11 33 c5 17 11 41 13 52 3 20 16 35 32 35 4
0 5 -7 2 -16 -4 -10 7 -28 30 -50 37 -37 56 -40 60 -10 3 21 14 35 14 17 0 -7
5 -9 10 -6 6 4 9 1 8 -7 -2 -8 6 -12 22 -11 l25 3 -22 -18 c-20 -16 -21 -24
-18 -139 2 -68 2 -123 -1 -123 -2 0 -11 12 -19 28 -14 22 -15 23 -12 5 3 -12
1 -23 -4 -25 -5 -2 -10 -13 -12 -25 -2 -12 -7 -26 -12 -30 -4 -5 -5 -2 -1 5 4
6 2 12 -3 12 -6 0 -11 -4 -11 -10 0 -5 -7 -10 -15 -10 -8 0 -15 7 -15 15 0 21
-28 15 -55 -10 -12 -11 -34 -42 -50 -70 -53 -92 -145 -275 -139 -275 4 0 -4
-9 -17 -20 -13 -10 -20 -19 -16 -20 5 0 1 -7 -7 -16 -9 -8 -14 -20 -11 -25 6
-9 -9 -13 -29 -10 -5 1 -3 -6 5 -15 8 -10 9 -15 2 -11 -9 6 -25 -21 -37 -63
-10 -31 -19 -89 -17 -103 2 -11 -5 -21 -17 -24 -11 -3 -22 -13 -25 -24 -3 -11
-20 -25 -38 -33 -20 -8 -27 -15 -18 -18 8 -3 2 -9 -16 -13 -16 -5 -40 -14 -52
-22 -31 -21 -37 0 -10 34 13 15 58 77 100 137 l77 110 0 168 0 168 -29 32
c-29 32 -32 33 -128 38 -54 3 -119 4 -144 2 l-47 -3 5 -72 c3 -47 10 -75 19
-80 8 -4 14 -15 14 -22 0 -8 5 -15 11 -15 15 0 33 -22 37 -45 2 -11 11 -28 19
-37 9 -10 11 -18 5 -18 -7 0 -8 -10 -2 -29 5 -19 4 -33 -3 -40 -8 -8 -8 -11 2
-11 7 0 9 -5 4 -12 -4 -7 -8 -24 -9 -38 -2 -60 -17 -89 -76 -152 -29 -30 -47
-88 -27 -88 6 0 -21 -36 -61 -80 -40 -44 -75 -78 -78 -75 -3 3 7 18 21 33 15
16 24 32 20 37 -5 4 -3 5 4 2 13 -8 84 73 76 86 -2 4 -11 3 -18 -3 -8 -7 -19
-9 -25 -5 -6 4 -26 9 -43 11 -72 7 -118 23 -110 38 4 6 -2 4 -12 -4 -17 -13
-18 -13 -10 0 4 8 17 26 29 40 13 15 7 13 -15 -7 -50 -47 -69 -41 -20 6 l41
39 1 1504 c1 827 5 1492 9 1478 4 -14 9 -178 10 -365 1 -319 5 -394 12 -266 2
35 8 56 17 59 8 3 11 0 8 -5 -4 -5 7 -20 23 -32 17 -12 30 -16 30 -10 0 6 7 9
14 6 9 -4 17 2 21 14 4 10 11 19 16 19 6 0 7 4 4 10 -3 6 1 7 10 4 11 -5 14
-2 9 10 -3 9 -2 16 4 16 16 0 22 -39 22 -142 0 -83 2 -96 15 -92 8 4 18 16 21
28 3 12 18 30 34 39 16 10 43 36 62 60 18 23 36 44 40 45 5 2 8 9 8 17 0 25
29 36 99 39 52 2 76 7 91 21 11 10 20 21 20 26 0 4 -31 10 -70 14 -38 4 -70
11 -70 16 0 8 42 11 197 13 58 1 60 2 51 21 -17 31 -28 35 -116 35 -62 0 -83
3 -80 13 3 8 32 13 86 15 45 2 82 5 82 7 0 2 -5 16 -12 30 -10 22 -17 25 -60
25 -26 0 -48 4 -48 10 0 13 45 24 70 17 11 -3 20 -2 20 2 0 12 -131 225 -188
305 -73 102 -289 325 -406 420 -186 150 -387 267 -462 269 -59 1 -186 -14
-263 -31 -36 -8 -141 7 -141 20 0 4 -6 5 -14 2 -15 -6 -96 92 -96 114 0 7 -4
12 -10 12 -5 0 -10 7 -10 15 0 8 -9 19 -20 25 -11 6 -18 15 -15 21 4 5 1 9 -5
9 -6 0 -9 4 -6 9 3 5 -44 19 -105 32 -80 17 -104 26 -87 30 12 4 17 7 9 8 -11
1 -11 4 -1 16 7 8 9 15 5 15 -4 0 -2 7 5 15 7 8 20 15 30 15 44 0 51 69 7 71
-17 1 -18 2 -4 6 9 2 17 9 17 14 0 11 -27 16 -122 23 l-78 6 0 -95 0 -95 -30
0 -30 0 0 -115 0 -115 -145 0 -145 0 0 115 0 115 -30 0 -30 0 4 95 4 95 -54 0
c-68 0 -71 18 -9 43 41 17 45 22 45 53 l0 34 -82 -1 c-46 0 -132 -9 -193 -20z
m272 -155 c-3 -3 -12 -4 -19 -1 -8 3 -5 6 6 6 11 1 17 -2 13 -5z m473 -89 c0
-14 -4 -25 -9 -25 -4 0 -6 11 -3 25 2 14 6 25 8 25 2 0 4 -11 4 -25z m0 -39
c0 -3 -4 -8 -10 -11 -5 -3 -10 -1 -10 4 0 6 5 11 10 11 6 0 10 -2 10 -4z
m-493 -28 c-3 -8 -6 -5 -6 6 -1 11 2 17 5 13 3 -3 4 -12 1 -19z m676 -48 c-3
-11 -7 -20 -9 -20 -2 0 -4 9 -4 20 0 11 4 20 9 20 5 0 7 -9 4 -20z m-874 -257
c-18 -21 -35 -40 -36 -42 -2 -2 -3 1 -3 7 0 15 50 72 63 72 6 0 -5 -17 -24
-37z m1248 -15 c-3 -8 -6 -5 -6 6 -1 11 2 17 5 13 3 -3 4 -12 1 -19z m66 -79
c11 -7 43 -15 71 -19 l51 -8 -42 -1 c-23 0 -53 3 -68 9 -28 10 -75 56 -75 73
0 5 9 -2 21 -17 11 -14 30 -31 42 -37z m-989 5 c3 -9 6 -43 7 -77 0 -34 3 -56
6 -49 2 6 18 12 34 12 22 0 28 4 23 13 -5 7 0 6 11 -3 12 -10 16 -10 11 -2 -6
10 2 12 38 7 43 -5 46 -3 61 25 8 16 15 43 15 60 0 21 4 30 13 28 7 -3 14 -30
17 -69 4 -46 9 -65 20 -67 8 -2 24 -11 34 -20 15 -13 17 -13 11 -2 -8 13 -6
13 8 1 9 -7 15 -16 13 -20 -3 -4 4 -13 16 -20 11 -7 17 -8 13 -2 -13 22 14 10
34 -15 11 -14 21 -24 23 -23 2 1 20 -3 40 -9 52 -14 78 -6 79 27 1 21 3 20 8
-9 l6 -35 240 -5 c132 -3 205 -7 163 -8 -47 -1 -78 -6 -78 -13 0 -5 -4 -8 -9
-4 -5 3 -17 -4 -25 -17 -14 -19 -14 -23 2 -35 13 -10 14 -13 2 -11 -9 2 -15
-5 -15 -17 -1 -12 -7 -19 -15 -17 -11 2 -11 0 -1 -11 9 -12 8 -16 -4 -21 -29
-11 -5 -26 43 -28 26 -1 -16 -5 -93 -8 -96 -4 -25 -7 229 -8 203 -1 367 -5
363 -8 -8 -8 -1323 -6 -1777 3 -206 4 -359 10 -340 14 19 3 26 7 15 8 -19 2
-19 2 2 20 16 14 24 34 28 72 3 30 2 59 -3 66 -5 8 -50 13 -137 16 -72 1 13 4
188 5 l318 2 9 23 9 22 0 -22 c1 -19 7 -23 34 -23 64 0 144 19 180 42 20 13
53 33 74 46 l38 23 -3 79 c-3 75 7 104 22 64z m1835 -418 c-7 -7 -118 87 -118
102 -1 6 -6 11 -13 10 -7 -2 -12 4 -13 12 0 8 -5 15 -12 15 -17 0 -26 12 -18
25 5 8 37 -17 93 -73 48 -48 84 -88 81 -91z m-3357 81 l-82 -82 -2 -65 -1 -65
-7 70 -7 70 76 78 c42 42 82 77 91 77 8 0 -22 -37 -68 -83z m1606 -174 c-26
-2 -71 -2 -100 0 -29 2 -8 3 47 3 55 0 79 -1 53 -3z m-1691 -115 c-3 -8 -6 -5
-6 6 -1 11 2 17 5 13 3 -3 4 -12 1 -19z m1854 -52 c74 -16 174 -63 203 -95 11
-12 16 -21 11 -21 -4 0 -2 -7 5 -15 9 -10 9 -15 1 -15 -6 0 -11 -9 -11 -19 0
-11 -4 -23 -10 -26 -5 -3 -10 -2 -10 3 0 6 -9 8 -19 5 -16 -4 -19 -1 -14 17 5
20 3 22 -20 18 -15 -3 -27 -2 -27 1 0 5 -72 6 -90 2 -3 -1 -68 -4 -145 -7 -77
-3 -142 -10 -146 -15 -3 -6 -10 -9 -15 -8 -5 1 -11 0 -14 -1 -3 -1 -25 -4 -50
-6 -25 -3 -58 -9 -74 -14 -43 -15 -58 2 -54 64 l3 51 75 38 c41 21 95 41 120
46 71 14 209 12 281 -3z m-2351 -192 c0 -2 -9 -4 -21 -4 -11 0 -18 4 -14 10 5
8 35 3 35 -6z m75 6 c-3 -5 -19 -10 -36 -10 -16 0 -29 5 -29 10 0 6 16 10 36
10 21 0 33 -4 29 -10z m2393 -236 c81 -17 192 -60 262 -102 25 -14 49 -25 53
-24 4 1 10 -5 13 -13 3 -8 10 -13 14 -10 11 7 136 -122 195 -200 25 -33 63
-96 85 -140 40 -82 76 -190 60 -180 -12 8 -13 17 5 -101 8 -54 14 -115 14
-134 -1 -30 -3 -28 -9 15 -5 28 -11 68 -14 90 -7 48 -44 160 -76 230 -46 98
-142 234 -162 227 -4 -1 -7 4 -6 10 2 7 -4 11 -12 10 -8 -2 -12 0 -7 4 9 9
-23 45 -34 38 -5 -3 -9 0 -9 5 0 19 -120 101 -137 94 -11 -4 -14 -2 -9 5 5 8
1 10 -10 5 -12 -4 -15 -3 -10 5 5 8 1 10 -10 5 -14 -5 -12 -8 9 -20 15 -7 37
-23 51 -36 13 -12 30 -27 38 -34 7 -7 18 -18 25 -25 25 -27 41 -37 49 -30 5 4
3 0 -4 -9 -10 -13 -8 -20 11 -37 13 -12 27 -20 30 -17 4 3 5 2 2 -2 -8 -10 16
-33 28 -26 5 3 7 1 4 -4 -4 -6 0 -16 8 -23 8 -7 15 -9 15 -4 1 5 8 -7 16 -26
8 -19 25 -46 37 -59 12 -13 16 -21 8 -16 -9 5 -12 3 -9 -6 3 -8 10 -13 16 -12
7 2 9 -4 5 -14 -4 -10 -2 -14 4 -10 5 3 10 0 10 -7 0 -7 14 -47 31 -89 18 -41
32 -83 32 -91 0 -9 5 -16 10 -16 6 0 10 -6 10 -14 0 -8 6 -17 13 -19 7 -3 5
-6 -5 -6 -14 -1 -16 -5 -8 -26 5 -14 7 -25 4 -25 -3 0 -2 -5 2 -12 11 -18 13
-78 3 -78 -5 0 -9 -5 -9 -11 0 -5 6 -7 13 -3 8 5 8 2 -2 -9 -11 -14 -11 -17 0
-17 12 0 12 -2 0 -9 -8 -5 -11 -16 -8 -25 4 -9 2 -16 -3 -16 -6 0 -10 -15 -10
-32 -1 -72 -56 -238 -112 -336 -98 -173 -286 -331 -465 -393 -94 -32 -111 -34
-283 -34 -195 1 -246 12 -395 85 -179 89 -285 194 -374 375 -49 99 -98 254
-103 327 -2 21 -7 38 -13 38 -5 0 -3 5 5 10 13 9 13 11 0 20 -12 8 -12 10 -1
10 11 0 11 3 1 15 -10 12 -10 15 1 15 12 0 12 2 1 9 -10 6 -12 23 -9 60 3 29
1 51 -4 51 -6 0 -7 16 -3 38 4 20 8 45 10 55 1 9 6 22 9 27 4 6 9 22 11 37 3
15 8 31 12 37 4 6 7 13 8 16 3 16 19 47 31 61 12 14 19 39 22 82 1 5 5 5 11 2
6 -3 7 1 4 10 -4 10 -2 15 7 13 8 -2 13 3 11 10 -1 7 5 15 13 18 8 3 13 9 10
14 -2 4 21 36 52 71 33 37 41 49 19 29 -59 -55 -149 -177 -140 -191 4 -7 3 -9
-4 -5 -14 8 -36 -30 -26 -46 4 -6 3 -8 -3 -5 -10 7 -55 -87 -92 -193 -11 -30
-20 -49 -20 -42 -1 7 -5 11 -10 7 -6 -3 -8 8 -6 26 2 17 7 56 10 87 3 31 10
59 15 60 6 2 8 8 5 12 -3 5 6 33 21 62 100 199 269 374 436 453 190 90 498
124 716 79z m-668 -19 c0 -2 -21 -16 -47 -29 -64 -33 -158 -99 -235 -165 l-63
-55 50 53 c61 63 145 125 228 168 67 35 67 35 67 28z m923 -38 c77 -42 186
-129 222 -177 11 -14 -8 0 -41 30 -63 58 -143 115 -229 162 -27 15 -45 28 -40
28 6 0 45 -19 88 -43z m1120 3 c20 -1 20 -2 4 -11 -13 -7 -21 -6 -32 4 -8 8
-11 18 -7 21 4 4 8 2 10 -3 2 -6 13 -11 25 -11z m-1098 -149 c3 -5 2 -12 -3
-15 -5 -3 -9 1 -9 9 0 17 3 19 12 6z m-2558 -83 c-2 -13 -4 -5 -4 17 -1 22 1
32 4 23 2 -10 2 -28 0 -40z m-181 -31 c4 -4 5 -9 2 -12 -6 -7 -238 -8 -245 -1
-3 2 -2 10 2 17 8 12 228 9 241 -4z m2851 -24 c0 -9 -4 -10 -14 -2 -7 6 -13
12 -13 14 0 1 6 2 13 2 8 0 14 -6 14 -14z m-3043 -85 c7 6 26 -16 26 -30 0
-14 -27 -9 -40 7 -10 12 -16 13 -26 4 -15 -13 -17 -9 -8 15 4 12 11 13 24 6 9
-5 20 -6 24 -2z m65 -191 c12 3 21 1 21 -6 0 -7 -32 -11 -95 -11 -53 0 -95 4
-95 9 0 12 97 19 126 9 12 -4 31 -4 43 -1z m3664 -140 c44 -86 60 -236 37
-357 -12 -63 -55 -163 -81 -186 -19 -17 -19 -16 -2 17 21 40 27 180 9 191 -8
6 -7 8 2 8 15 0 16 47 0 52 -7 3 -8 9 -3 18 12 19 14 50 3 56 -13 8 -9 64 5
65 9 0 9 2 -1 6 -10 4 -10 8 -1 19 8 10 8 14 0 14 -6 0 -11 11 -11 25 0 14 -4
25 -8 25 -4 0 -7 18 -6 40 1 22 -5 51 -12 66 l-14 27 32 -25 c18 -14 40 -41
51 -61z m-2633 7 c0 -8 -19 -13 -24 -6 -3 5 1 9 9 9 8 0 15 -2 15 -3z m2780
-241 l-1 -238 -24 70 c-33 96 -36 279 -5 340 11 22 20 45 20 52 0 7 2 13 5 13
3 0 5 -107 5 -237z m-2794 182 c-3 -17 -8 -39 -12 -48 -3 -10 -2 -17 3 -17 11
0 11 -189 0 -207 -4 -6 -3 -14 1 -17 5 -3 9 -25 9 -49 1 -31 -3 -44 -13 -44
-8 0 -13 5 -12 11 0 6 -5 25 -12 41 -18 40 -21 306 -3 312 7 3 10 10 7 18 -3
7 0 16 5 20 6 3 9 11 6 16 -3 5 1 6 10 3 12 -5 14 -15 11 -39z m-738 17 c-8
-9 -14 -9 -24 -1 -18 15 -18 14 10 14 18 0 22 -3 14 -13z m3449 -259 c-2 -21
-4 -4 -4 37 0 41 2 58 4 38 2 -21 2 -55 0 -75z m-447 -140 c-7 -24 -10 -46 -6
-50 3 -3 6 1 6 10 0 10 5 17 11 17 5 0 7 5 4 10 -3 6 -1 10 4 10 18 0 12 -31
-22 -116 -102 -250 -282 -444 -512 -550 -42 -19 -80 -32 -85 -29 -14 9 -1 33
23 41 11 4 29 16 40 28 10 11 15 14 11 6 -4 -8 8 -3 27 13 18 15 50 36 69 46
54 30 199 159 253 226 66 82 133 221 160 332 12 50 24 82 25 71 2 -12 -2 -41
-8 -65z m437 65 c-3 -8 -6 -5 -6 6 -1 11 2 17 5 13 3 -3 4 -12 1 -19z m-10
-50 c-3 -8 -6 -5 -6 6 -1 11 2 17 5 13 3 -3 4 -12 1 -19z m-2191 -260 c39 -75
155 -207 246 -279 53 -41 76 -80 36 -58 -32 17 -168 150 -213 209 -40 52 -101
160 -90 160 2 0 12 -15 21 -32z m3511 -63 c0 -8 -4 -12 -9 -9 -4 3 -8 -1 -8
-8 0 -10 -3 -9 -10 2 -6 9 -5 17 3 22 18 11 24 10 24 -7z m-41 -451 c-8 -21
-15 -34 -15 -28 -1 15 20 76 25 71 2 -2 -2 -21 -10 -43z m-2441 -316 c-62 -33
-141 -48 -245 -46 l-95 1 115 7 c106 7 193 26 230 50 8 5 20 10 25 9 6 0 -8
-9 -30 -21z m663 10 c-5 -15 -368 -24 -368 -10 0 20 21 22 193 22 138 0 178
-3 175 -12z m-58 -87 c0 -17 -34 -21 -196 -18 -122 1 -160 5 -157 14 6 15 353
19 353 4z m-197 -81 c115 0 148 -3 145 -12 -5 -15 -358 -25 -358 -10 0 17 26
33 45 28 11 -3 87 -6 168 -6z m-2564 -75 c0 -6 -3 -5 -5 1 -3 7 -13 10 -22 7
-9 -2 -25 2 -36 10 -16 12 -17 17 -6 37 l13 24 28 -34 c16 -19 29 -39 28 -45z
m2099 28 c-38 -2 -98 -2 -135 0 -38 2 -7 3 67 3 74 0 105 -1 68 -3z m371 -43
l126 0 -1 -95 c0 -67 3 -95 11 -95 16 0 27 133 15 166 l-10 24 383 -2 382 -3
-305 -5 c-168 -3 -295 -6 -283 -8 20 -2 21 -5 13 -28 -13 -33 -13 -34 5 -34
11 0 12 -5 5 -26 -7 -16 -7 -23 0 -19 6 3 10 0 10 -8 0 -8 7 -18 16 -21 10 -4
13 -2 8 7 -5 9 -4 9 6 0 10 -9 17 -10 27 -1 11 8 12 7 7 -6 -7 -19 16 -22 34
-4 9 9 12 8 12 -5 0 -14 -11 -17 -57 -19 -32 -1 16 -5 107 -8 128 -4 86 -6
-192 -8 l-358 -2 0 -169 c0 -162 -1 -171 -22 -196 -22 -24 -95 -55 -83 -34 4
5 13 9 21 9 8 0 26 11 39 25 25 24 25 27 25 195 l0 170 -117 0 c-69 -1 -139
-7 -168 -15 -27 -7 -44 -14 -37 -14 21 -1 44 -28 29 -34 -7 -3 -5 -6 6 -6 17
-1 17 -2 0 -28 -15 -23 -16 -26 -2 -21 12 5 15 -1 14 -27 0 -19 -5 -38 -9 -42
-5 -5 -6 -2 -1 6 5 9 4 12 -3 8 -5 -4 -9 -18 -7 -32 2 -26 -25 -51 -40 -37 -5
4 -6 2 -2 -3 3 -6 2 -17 -3 -25 -7 -11 -11 -11 -24 -1 -9 8 -16 10 -16 5 0 -4
-6 -1 -12 8 -15 18 -100 31 -146 22 -19 -4 -32 -14 -35 -26 -9 -34 -27 -9 -27
37 0 24 -4 55 -10 69 -8 23 -6 28 20 41 16 8 36 15 45 15 9 0 14 4 11 9 -4 5
-1 11 6 13 9 3 8 9 -5 22 -9 10 -17 20 -17 23 0 4 3 3 6 0 4 -3 16 -1 28 6 19
10 15 12 -34 18 -30 4 -217 8 -415 10 -198 2 -318 5 -266 6 78 3 91 6 76 16
-16 12 -16 14 1 28 15 11 16 12 9 0 -5 -10 -4 -12 3 -7 7 4 9 18 6 33 -5 18
-3 24 5 19 6 -4 11 -2 11 4 0 6 3 9 8 7 4 -3 7 10 7 29 0 19 -4 34 -10 35 -5
0 -1 4 10 9 l20 9 -20 3 c-41 6 570 15 799 11 132 -1 296 -3 365 -3z m1241
-204 c0 -2 -8 -10 -17 -17 -16 -13 -17 -12 -4 4 13 16 21 21 21 13z m-1832
-330 c-15 -6 -41 -25 -58 -41 -16 -16 -30 -24 -30 -19 0 15 52 61 75 67 35 8
41 6 13 -7z m1172 -166 c-6 -11 -16 -21 -23 -22 -23 -2 -32 -5 -57 -15 -59
-24 -70 -20 -15 6 33 15 66 26 74 23 9 -3 12 -1 8 5 -6 9 1 17 21 22 1 1 -2
-8 -8 -19z m-170 -69 c-8 -5 -26 -11 -40 -15 -21 -5 -20 -3 5 9 32 15 60 20
35 6z m-110 -41 c-8 -5 -22 -9 -30 -9 -10 0 -8 3 5 9 27 12 43 12 25 0z m-125
-39 c-27 -9 -54 -19 -60 -23 -5 -3 -37 -13 -70 -22 -44 -11 -62 -12 -70 -4 -7
8 -6 9 2 4 6 -3 13 -2 15 2 3 9 190 60 218 60 8 0 -7 -7 -35 -17z m-1219 -39
c7 -4 8 -15 3 -27 -4 -11 -8 -15 -8 -8 -1 6 -8 19 -17 27 -11 12 -12 16 -2 16
7 0 18 -4 24 -8z m131 -218 c-3 -3 -12 -4 -19 -1 -8 3 -5 6 6 6 11 1 17 -2 13
-5z"/>
<path d="M4330 6933 c0 -55 7 -66 15 -24 2 11 7 26 10 31 8 13 -4 50 -16 50
-5 0 -9 -25 -9 -57z"/>
<path d="M5470 6041 c0 -6 4 -12 8 -15 5 -3 9 1 9 9 0 8 -4 15 -9 15 -4 0 -8
-4 -8 -9z"/>
<path d="M5050 5755 c15 -18 0 -20 -19 -2 -11 10 -11 8 -2 -11 10 -19 15 -21
27 -11 18 15 18 25 -2 33 -14 5 -15 4 -4 -9z"/>
<path d="M5110 5760 c-8 -5 -19 -6 -25 -2 -5 3 -4 -2 4 -11 12 -16 8 -22 -13
-18 -13 3 -36 -20 -31 -29 3 -5 1 -11 -4 -15 -6 -3 -8 3 -6 13 2 12 -3 18 -17
19 -17 2 -18 0 -6 -15 9 -13 7 -12 -10 2 -23 20 -31 9 -10 -12 7 -7 8 -12 2
-12 -6 0 -16 11 -22 24 -10 22 -9 24 9 21 10 -2 19 1 19 6 0 6 5 7 10 4 16
-10 11 1 -7 16 -11 10 -14 10 -9 2 6 -12 1 -15 -21 -12 -5 1 -6 6 -5 13 2 6 0
7 -5 3 -4 -5 -9 -21 -9 -35 -3 -42 -3 -44 -13 -37 -6 3 -8 14 -6 25 4 22 -10
36 -20 20 -4 -6 -10 -8 -15 -5 -4 3 -7 -3 -5 -12 4 -27 -14 -46 -31 -32 -8 6
-14 8 -14 5 0 -4 -9 -2 -19 4 -14 7 -22 7 -26 0 -4 -6 -10 -8 -15 -5 -4 3 -13
-2 -19 -9 -7 -8 -8 -17 -3 -20 6 -3 15 1 22 9 10 12 16 13 28 3 13 -11 14 -11
8 1 -6 9 -5 12 4 9 15 -5 22 -35 10 -43 -5 -3 -11 -1 -15 5 -4 6 -12 7 -18 3
-7 -4 -19 -8 -27 -8 -9 0 -14 -7 -12 -17 2 -11 -3 -18 -12 -18 -10 0 -13 6
-10 18 5 14 4 15 -5 2 -11 -16 -39 -20 -57 -8 -6 4 -11 2 -11 -7 0 -8 4 -12 9
-9 4 3 8 1 8 -4 0 -5 10 -9 21 -8 14 1 23 -6 25 -17 2 -17 1 -17 -15 -3 -12
11 -20 13 -28 5 -8 -8 -13 -7 -18 1 -5 8 -11 6 -22 -7 -8 -10 -12 -13 -9 -6 4
6 1 15 -6 19 -7 4 -10 4 -6 -1 4 -4 3 -14 -3 -22 -9 -10 -7 -13 7 -14 11 0 14
-3 6 -6 -6 -2 -9 -10 -5 -16 3 -7 -3 -4 -14 6 -23 20 -38 23 -27 5 5 -9 2 -9
-9 1 -20 16 -22 8 -6 -21 10 -18 9 -20 -5 -15 -10 4 -14 3 -11 -2 3 -5 1 -12
-5 -16 -6 -4 -8 -10 -5 -14 2 -5 -6 -7 -19 -6 -24 3 -30 -15 -11 -32 4 -4 5
-3 1 4 -3 6 -2 14 3 17 14 9 7 -22 -9 -37 -10 -10 -12 -9 -6 3 5 9 2 9 -7 -2
-8 -10 -18 -14 -23 -10 -4 4 -2 -1 5 -10 11 -15 11 -19 -3 -24 -9 -3 -16 -17
-16 -31 0 -16 -4 -22 -12 -17 -10 5 -10 4 -1 -6 14 -15 6 -42 -11 -33 -7 4 -7
2 1 -7 8 -9 9 -19 2 -32 -5 -10 -6 -18 -2 -18 4 0 3 -4 -4 -8 -6 -4 -15 -20
-19 -36 -5 -21 -4 -27 5 -22 13 9 11 -15 -3 -25 -5 -4 -5 -12 -1 -19 4 -7 9
-38 10 -69 2 -65 45 -198 84 -256 51 -78 161 -206 161 -187 0 3 12 -6 28 -20
15 -14 34 -28 42 -32 8 -3 29 -15 45 -26 119 -79 321 -111 486 -76 78 17 181
62 246 108 56 40 153 129 153 142 0 5 8 16 18 25 33 28 131 241 140 303 11 73
5 281 -10 333 -6 22 -12 42 -13 45 0 3 -13 31 -28 64 -15 32 -27 60 -27 62 0
5 -30 43 -58 72 -16 17 -31 23 -48 19 -17 -3 -24 -1 -21 8 3 6 -1 12 -9 12 -7
0 -11 -5 -7 -10 3 -5 -4 -6 -17 -2 -17 6 -21 4 -14 -6 7 -12 5 -12 -9 0 -20
16 -13 32 11 25 15 -5 15 -5 -1 6 -9 6 -23 8 -30 3 -6 -4 -22 -9 -33 -10 -18
-3 -21 1 -18 22 2 21 0 24 -12 14 -7 -6 -11 -15 -8 -20 3 -5 -2 -6 -10 -3 -9
3 -14 10 -11 14 3 4 -3 14 -12 21 -14 12 -16 12 -8 0 6 -11 4 -13 -9 -8 -10 4
-27 7 -37 7 -11 0 -18 4 -14 9 3 5 0 13 -6 17 -8 4 -9 3 -5 -4 9 -15 -8 -15
-37 -1 -21 10 -21 10 -3 -5 19 -15 19 -16 -8 -16 -15 0 -25 4 -22 9 3 5 -5 16
-19 25 -14 9 -25 13 -25 10 0 -4 -9 1 -19 10 -10 10 -22 13 -25 8 -6 -10 -48
-8 -67 4 -8 5 -10 3 -5 -7 4 -8 1 -6 -6 3 -9 11 -19 14 -28 8z m122 -51 c-20
-23 -23 -24 -16 -4 7 17 -7 20 -22 5 -6 -6 -10 -3 -11 10 -2 23 1 24 29 9 18
-10 20 -9 14 6 -5 15 -4 16 8 6 13 -11 13 -15 -2 -32z m-307 4 c-2 -10 -4 -19
-4 -21 -1 -2 -6 0 -11 3 -8 5 -7 11 1 21 15 18 18 18 14 -3z m365 -11 c-6 -2
-8 -8 -5 -13 4 -5 -2 -6 -11 -2 -11 4 -15 3 -10 -5 3 -6 2 -13 -3 -16 -5 -4
-12 -2 -15 3 -4 5 -2 12 4 16 6 4 8 11 5 16 -4 5 2 6 12 2 16 -6 17 -5 3 12
-14 17 -14 17 8 4 12 -8 18 -15 12 -17z m-177 -4 c-11 -15 -11 -28 1 -48 7
-10 3 -10 -11 3 -11 9 -22 14 -25 11 -3 -3 -9 0 -14 7 -4 7 -3 10 3 6 6 -4 18
2 28 13 20 22 33 27 18 8z m57 8 c0 -2 -7 -7 -16 -10 -8 -3 -12 -2 -9 4 6 10
25 14 25 6z m-230 -36 c5 -9 5 -17 -1 -21 -6 -3 -4 -11 6 -19 13 -11 14 -10 9
6 -7 18 -7 18 13 2 11 -10 24 -18 29 -18 5 0 2 5 -6 10 -11 7 -11 10 -2 10 7
0 11 4 8 9 -3 5 1 15 10 22 8 7 14 8 13 3 -4 -21 2 -26 19 -13 15 12 16 12 5
-2 -7 -9 -10 -19 -6 -23 4 -4 0 -4 -10 0 -10 3 -17 1 -17 -5 0 -13 -9 -13 180
-11 85 1 163 2 173 1 44 -3 56 -6 49 -13 -4 -4 -88 -9 -187 -11 l-180 -2 208
-3 208 -2 -81 -72 c-64 -56 -78 -73 -66 -80 9 -5 13 -17 10 -31 -3 -12 -7 -96
-9 -187 -10 -348 -12 -371 -32 -384 -56 -38 -159 -45 -263 -18 l-65 17 -3 155
c-2 97 -7 157 -13 161 -7 4 -12 51 -14 116 -1 61 -5 115 -9 121 -4 7 -3 12 2
12 14 0 8 48 -8 62 -11 11 -11 9 0 -7 14 -18 14 -19 -2 -7 -9 7 -15 22 -13 32
3 17 -9 33 -25 35 -19 2 -70 38 -65 45 4 6 -1 10 -10 10 -9 0 -13 4 -10 10 3
5 1 19 -5 30 -7 13 -7 20 0 20 5 0 10 -6 10 -12 0 -7 5 -5 11 5 8 14 14 15 24
7 10 -8 15 -8 20 0 5 8 10 8 20 0 10 -8 15 -8 21 1 4 7 3 9 -4 5 -11 -7 -25 9
-28 32 -2 10 2 10 14 -2 17 -15 45 -16 58 -3 4 3 -6 4 -21 1 -24 -4 -26 -3
-16 10 14 17 39 15 51 -4z m445 9 c4 -6 13 -8 21 -5 7 3 16 2 18 -3 6 -9 2
-10 -68 -15 -55 -5 -85 2 -65 14 6 4 23 5 38 0 33 -9 60 -2 40 11 -9 6 -10 9
-2 9 6 0 15 -5 18 -11z m-411 -15 c9 -24 7 -28 -9 -14 -17 14 -20 30 -6 30 5
0 12 -7 15 -16z m164 -9 c-3 -3 -9 2 -12 12 -6 14 -5 15 5 6 7 -7 10 -15 7
-18z m72 10 c0 -2 -9 -9 -19 -15 -14 -7 -22 -7 -27 2 -4 6 -3 8 2 5 6 -3 16
-2 24 4 17 10 20 11 20 4z m-140 -25 c0 -5 -5 -10 -11 -10 -5 0 -7 5 -4 10 3
6 8 10 11 10 2 0 4 -4 4 -10z m220 6 c0 -2 -7 -7 -16 -10 -8 -3 -12 -2 -9 4 6
10 25 14 25 6z m-30 -911 l0 -25 -129 0 c-72 0 -132 4 -135 9 -4 5 -3 16 0 25
5 13 26 16 135 16 l129 0 0 -25z"/>
<path d="M4904 5628 c-4 -7 -4 -10 1 -6 4 4 15 2 24 -5 14 -11 14 -10 2 6 -16
20 -18 21 -27 5z"/>
<path d="M5093 5553 c9 -2 25 -2 35 0 9 3 1 5 -18 5 -19 0 -27 -2 -17 -5z"/>
<path d="M4861 5726 c-8 -10 -9 -16 -1 -21 5 -3 10 -5 11 -3 4 18 7 38 4 38
-1 0 -8 -6 -14 -14z"/>
<path d="M2720 5710 c0 -5 5 -10 11 -10 5 0 7 5 4 10 -3 6 -8 10 -11 10 -2 0
-4 -4 -4 -10z"/>
<path d="M5330 7935 c0 -23 4 -25 43 -24 l42 0 -32 16 c-18 9 -33 20 -33 25 0
4 -4 8 -10 8 -5 0 -10 -11 -10 -25z"/>
<path d="M4990 7930 c0 -6 52 -10 135 -10 83 0 135 4 135 10 0 6 -52 10 -135
10 -83 0 -135 -4 -135 -10z"/>
<path d="M5453 7903 c9 -2 23 -2 30 0 6 3 -1 5 -18 5 -16 0 -22 -2 -12 -5z"/>
<path d="M7452 7903 c-16 -3 -22 -10 -18 -19 3 -9 1 -12 -4 -9 -6 3 -10 -5
-10 -19 0 -14 -5 -26 -11 -26 -5 0 -7 -4 -4 -10 3 -5 1 -10 -5 -10 -6 0 -8 -5
-5 -11 4 -5 0 -18 -8 -27 -24 -27 -38 -110 -21 -127 8 -7 14 -18 14 -24 0 -6
3 -11 6 -11 13 0 204 183 204 196 0 16 -87 84 -107 84 -8 0 -11 5 -8 10 3 6 5
9 3 9 -2 -1 -13 -4 -26 -6z"/>
<path d="M6994 7886 c1 -8 11 -25 21 -36 11 -12 19 -32 17 -45 -2 -15 14 -44
48 -86 28 -35 57 -78 65 -95 7 -17 21 -36 29 -43 9 -7 13 -17 10 -22 -3 -5 6
-14 20 -21 14 -6 26 -18 26 -25 0 -8 5 -11 10 -8 6 3 10 -2 10 -12 0 -10 4
-14 8 -8 4 6 28 28 52 50 24 22 37 31 28 20 -11 -13 -15 -30 -12 -45 5 -23 4
-24 -9 -7 -12 15 -16 15 -26 3 -9 -10 -9 -20 -3 -33 7 -12 7 -25 1 -36 -8 -13
-7 -17 3 -15 7 2 11 -4 9 -12 -8 -34 -5 -63 8 -68 8 -3 11 0 7 7 -4 6 -3 11 3
11 6 0 15 -9 21 -20 6 -11 15 -18 21 -15 5 4 27 -11 50 -32 22 -21 43 -38 48
-38 4 0 33 23 65 52 l59 52 -41 48 c-110 131 -443 430 -464 417 -6 -4 -8 -3
-5 3 3 5 -8 20 -25 33 -17 12 -27 17 -23 10 5 -8 3 -11 -6 -8 -8 3 -14 10 -14
16 0 5 -3 13 -7 17 -3 4 -5 0 -4 -9z"/>
<path d="M4947 7853 c-4 -3 -7 -44 -7 -90 0 -76 2 -83 20 -83 19 0 20 7 20 90
0 68 -3 90 -13 90 -8 0 -17 -3 -20 -7z"/>
<path d="M5017 7853 c-16 -4 -18 -17 -16 -126 1 -67 4 -141 7 -164 l5 -42 113
-3 114 -3 0 40 c0 22 3 100 7 173 l6 132 -109 -1 c-60 -1 -117 -3 -127 -6z"/>
<path d="M5277 7853 c-2 -5 -2 -43 1 -85 3 -53 8 -78 18 -82 11 -4 14 12 14
84 0 72 -3 90 -14 90 -8 0 -17 -3 -19 -7z"/>
<path d="M3623 7645 c0 -8 4 -12 9 -9 5 3 6 10 3 15 -9 13 -12 11 -12 -6z"/>
<path d="M3586 7632 c-3 -5 1 -9 9 -9 8 0 12 4 9 9 -3 4 -7 8 -9 8 -2 0 -6 -4
-9 -8z"/>
<path d="M3546 7605 c-11 -8 -15 -15 -9 -15 7 0 15 5 18 10 4 6 11 7 17 4 7
-4 8 -2 4 4 -9 14 -7 15 -30 -3z"/>
<path d="M7727 7578 c-18 -7 -26 -15 -23 -24 7 -17 -6 -18 -23 -1 -10 10 -11
9 -6 -4 3 -9 -7 -31 -25 -54 -33 -41 -42 -65 -10 -26 11 13 20 19 20 15 0 -5
23 16 51 45 28 29 49 54 47 56 -2 1 -16 -2 -31 -7z"/>
<path d="M6611 7511 c-15 -16 -28 -36 -28 -43 0 -8 36 -41 80 -74 67 -50 97
-80 103 -104 0 -3 4 -13 9 -23 6 -15 10 -16 16 -5 6 9 9 9 9 1 0 -6 -4 -15
-10 -18 -5 -3 -10 -11 -10 -16 0 -6 5 -7 10 -4 6 3 10 2 10 -3 0 -5 11 -22 25
-38 27 -31 33 -50 13 -38 -7 4 -4 -2 6 -15 13 -15 22 -18 27 -10 4 7 10 3 14
-12 4 -13 36 -53 71 -88 35 -35 64 -70 64 -77 0 -8 5 -14 10 -14 6 0 15 -11
20 -25 5 -14 14 -25 20 -25 6 0 8 -4 5 -10 -3 -5 -1 -10 4 -10 6 0 11 -6 11
-13 0 -17 46 -57 56 -49 4 4 4 2 0 -5 -3 -6 -2 -14 4 -18 6 -4 7 -12 4 -18 -4
-7 -4 -9 1 -5 8 8 42 -31 38 -44 -2 -4 5 -4 14 -1 11 4 14 3 9 -5 -4 -7 -2
-12 3 -12 6 0 11 -7 11 -15 0 -8 5 -15 10 -15 6 0 10 -6 10 -14 0 -7 7 -19 15
-26 8 -7 12 -16 9 -21 -3 -5 -2 -9 3 -8 4 1 18 -2 31 -6 18 -6 20 -10 11 -21
-14 -17 2 -19 19 -2 9 9 12 9 12 1 0 -7 -5 -15 -10 -18 -6 -4 -1 -14 12 -25
13 -10 25 -16 27 -14 3 2 -4 11 -15 19 -10 8 -14 15 -8 15 6 0 17 -7 24 -15
10 -12 10 -18 -1 -32 -12 -15 -12 -16 3 -10 20 7 34 -8 17 -19 -8 -5 -9 -3 -4
6 6 9 4 11 -4 6 -13 -8 -7 -21 9 -21 5 0 15 -8 23 -19 14 -19 29 -23 125 -33
54 -6 55 -23 1 -23 -14 0 -29 -3 -33 -7 -4 -4 -19 -7 -34 -8 -21 0 -27 -5 -28
-22 -1 -22 2 -23 92 -23 56 0 94 -4 94 -10 0 -5 -19 -11 -42 -11 -79 -2 -103
-12 -103 -39 0 -21 5 -25 39 -28 49 -3 56 -10 33 -27 -10 -7 -14 -15 -8 -16 6
-2 26 -60 46 -129 34 -117 35 -127 23 -175 -7 -27 -18 -61 -25 -74 -6 -14 -10
-29 -7 -33 3 -5 -2 -19 -13 -30 -12 -15 -13 -19 -3 -13 12 6 13 5 3 -6 -7 -7
-13 -17 -13 -22 0 -4 6 -5 13 -1 8 5 9 4 2 -4 -7 -7 -8 -36 -5 -72 6 -62 1
-70 -39 -70 -14 0 -21 23 -40 144 -15 95 -28 147 -37 150 -13 5 -29 -10 -29
-28 0 -5 -7 -11 -15 -13 -13 -4 -13 -3 0 6 20 14 7 14 -24 -1 -22 -9 -24 -14
-13 -26 10 -13 9 -14 -10 -3 -14 7 -23 8 -23 2 0 -6 -7 -7 -17 -4 -12 5 -14 3
-8 -7 6 -10 4 -12 -8 -7 -10 4 -17 1 -17 -6 0 -8 -3 -8 -9 2 -6 9 -11 10 -15
2 -4 -6 -5 -15 -2 -19 2 -4 -4 -8 -14 -8 -14 0 -16 4 -9 12 8 9 5 11 -10 7
-12 -3 -18 -9 -15 -14 3 -5 0 -9 -5 -9 -6 0 -11 5 -11 10 0 6 -3 9 -7 9 -5 -1
-10 0 -13 1 -17 7 -48 5 -44 -2 4 -5 12 -7 18 -5 7 3 13 -1 13 -8 0 -10 -5
-11 -18 -4 -10 5 -22 9 -26 8 -19 -3 -34 2 -29 10 4 5 -2 7 -12 4 -10 -2 -35
5 -56 16 -20 12 -43 21 -51 21 -8 0 -15 5 -15 10 0 6 -3 9 -7 8 -5 -2 -9 1
-10 5 -2 12 -35 36 -48 37 -5 0 -3 -5 5 -10 8 -5 10 -10 5 -10 -6 0 -23 11
-38 25 l-27 26 0 -161 0 -160 28 -1 c129 -3 215 -9 220 -13 3 -4 -28 -6 -69
-7 -41 0 -91 -2 -112 -4 -21 -2 -35 0 -32 5 3 4 -4 6 -16 3 -14 -4 -18 -11
-13 -22 3 -9 9 -24 11 -34 4 -13 9 -15 18 -7 10 8 18 2 33 -24 16 -27 25 -33
41 -29 12 3 21 1 21 -5 0 -11 18 -11 38 1 7 5 14 2 18 -7 5 -12 11 -13 24 -6
13 7 21 7 25 0 9 -15 27 -12 19 3 -6 10 -4 10 7 0 7 -7 23 -13 34 -13 12 0 25
-3 28 -7 10 -9 56 -10 50 -1 -2 5 11 0 29 -11 28 -15 38 -17 57 -7 12 7 18 16
14 21 -4 6 2 1 15 -9 12 -11 22 -15 22 -10 0 5 5 2 10 -6 7 -10 10 12 10 73 0
55 -4 87 -11 87 -6 0 -7 5 -2 13 4 6 8 19 8 27 0 8 10 16 23 18 19 3 22 -1 22
-27 l0 -31 88 0 c48 0 94 4 102 10 8 5 17 5 20 0 3 -5 18 -10 33 -12 26 -4 36
-25 10 -22 -7 1 -13 -3 -13 -9 0 -7 -4 -7 -12 1 -8 8 -48 12 -115 12 l-103 0
0 -41 0 -40 95 2 c52 2 95 6 95 11 0 4 9 8 21 8 11 0 17 -4 14 -10 -4 -6 12
-10 39 -11 25 -1 54 -2 64 -3 11 -1 18 7 20 22 3 19 -1 22 -27 22 -32 0 -36 9
-22 44 7 18 8 18 14 3 11 -29 27 -19 27 18 0 24 6 37 20 45 18 10 20 8 20 -17
0 -22 2 -25 10 -13 8 12 10 10 10 -8 0 -13 -4 -20 -10 -17 -5 3 -10 2 -10 -3
0 -9 59 -11 61 -2 9 62 8 62 -16 58 -22 -5 -24 -1 -30 51 -12 103 -26 175 -64
326 -121 474 -354 880 -710 1236 -156 156 -353 315 -373 303 -7 -4 -8 -2 -4 4
3 6 -3 16 -14 22 -18 10 -25 7 -49 -19z m526 -1957 c-3 -3 -12 -4 -19 -1 -8 3
-5 6 6 6 11 1 17 -2 13 -5z m76 -1 c-13 -2 -33 -2 -45 0 -13 2 -3 4 22 4 25 0
35 -2 23 -4z m70 0 c-7 -2 -21 -2 -30 0 -10 3 -4 5 12 5 17 0 24 -2 18 -5z
m64 1 c-3 -3 -12 -4 -19 -1 -8 3 -5 6 6 6 11 1 17 -2 13 -5z m-152 -133 c3 -5
2 -12 -3 -15 -5 -3 -9 1 -9 9 0 17 3 19 12 6z"/>
<path d="M7645 7520 c-3 -5 -1 -10 4 -10 6 0 11 5 11 10 0 6 -2 10 -4 10 -3 0
-8 -4 -11 -10z"/>
<path d="M5010 7469 l0 -32 68 6 c37 4 88 7 115 7 43 0 47 2 47 25 l0 25 -115
0 -115 0 0 -31z m168 -6 c-27 -2 -69 -2 -95 0 -27 2 -5 3 47 3 52 0 74 -1 48
-3z"/>
<path d="M7075 7470 c10 -11 20 -20 23 -20 3 0 -3 9 -13 20 -10 11 -20 20 -23
20 -3 0 3 -9 13 -20z"/>
<path d="M7167 7397 c-6 -17 -1 -24 38 -57 17 -14 25 -18 18 -11 -9 11 -9 19
-1 35 11 20 10 20 -7 6 -10 -8 -16 -10 -12 -4 4 6 -2 19 -12 28 -15 14 -20 14
-24 3z"/>
<path d="M2940 7279 c0 -5 5 -7 10 -4 6 3 10 8 10 11 0 2 -4 4 -10 4 -5 0 -10
-5 -10 -11z"/>
<path d="M3004 7262 c-10 -7 -27 -42 -20 -42 2 0 11 11 20 25 17 26 17 29 0
17z"/>
<path d="M7314 7239 c-10 -11 -14 -19 -8 -17 5 2 23 -11 39 -28 17 -16 23 -21
15 -10 -15 21 -15 21 7 2 13 -10 20 -23 17 -28 -8 -13 26 -49 39 -41 5 3 7 2
4 -3 -3 -6 12 -32 34 -59 22 -28 47 -63 55 -78 8 -16 20 -25 26 -21 7 4 8 3 4
-5 -4 -6 5 -28 21 -49 16 -20 43 -60 61 -88 18 -28 39 -51 47 -51 11 0 14 6 9
16 -4 9 -7 23 -8 32 -1 10 -15 33 -32 52 -16 19 -44 54 -62 76 -18 23 -37 39
-42 36 -5 -3 -12 0 -16 6 -4 8 -3 9 4 5 7 -4 12 -5 12 -2 0 13 -47 84 -73 112
-17 17 -28 33 -26 36 6 7 -81 103 -94 103 -7 1 -11 6 -9 13 3 17 -2 15 -24 -9z
m304 -374 c-3 -3 -9 2 -12 12 -6 14 -5 15 5 6 7 -7 10 -15 7 -18z"/>
<path d="M7500 6750 c6 -11 13 -20 16 -20 2 0 0 9 -6 20 -6 11 -13 20 -16 20
-2 0 0 -9 6 -20z"/>
<path d="M7555 6660 c9 -16 18 -30 21 -30 2 0 -2 14 -11 30 -9 17 -18 30 -21
30 -2 0 2 -13 11 -30z"/>
<path d="M7615 6550 c9 -16 18 -30 21 -30 2 0 -2 14 -11 30 -9 17 -18 30 -21
30 -2 0 2 -13 11 -30z"/>
<path d="M7656 6477 c3 -10 9 -15 12 -12 3 3 0 11 -7 18 -10 9 -11 8 -5 -6z"/>
<path d="M7690 6461 c0 -6 4 -13 10 -16 6 -3 7 1 4 9 -7 18 -14 21 -14 7z"/>
<path d="M7724 6319 c29 -74 64 -167 77 -206 12 -40 25 -71 27 -68 9 9 -128
379 -148 399 -6 6 14 -51 44 -125z"/>
<path d="M7830 6024 c1 -21 48 -188 49 -172 1 10 -9 53 -20 95 -20 73 -29 98
-29 77z"/>
<path d="M7871 5954 c0 -11 3 -14 6 -6 3 7 2 16 -1 19 -3 4 -6 -2 -5 -13z"/>
<path d="M8070 5936 c0 -2 8 -10 18 -17 15 -13 16 -12 3 4 -13 16 -21 21 -21
13z"/>
<path d="M7881 5914 c0 -11 3 -14 6 -6 3 7 2 16 -1 19 -3 4 -6 -2 -5 -13z"/>
<path d="M8091 5884 c0 -11 3 -14 6 -6 3 7 2 16 -1 19 -3 4 -6 -2 -5 -13z"/>
<path d="M7891 5874 c0 -11 3 -14 6 -6 3 7 2 16 -1 19 -3 4 -6 -2 -5 -13z"/>
<path d="M7902 5825 c0 -16 2 -22 5 -12 2 9 2 23 0 30 -3 6 -5 -1 -5 -18z"/>
<path d="M7912 5765 c0 -16 2 -22 5 -12 2 9 2 23 0 30 -3 6 -5 -1 -5 -18z"/>
<path d="M2143 5753 c4 -3 1 -13 -6 -21 -10 -13 -9 -14 3 -10 19 6 26 38 9 38
-7 0 -9 -3 -6 -7z"/>
<path d="M6728 5693 c12 -2 30 -2 40 0 9 3 -1 5 -23 4 -22 0 -30 -2 -17 -4z"/>
<path d="M6798 5693 c7 -3 16 -2 19 1 4 3 -2 6 -13 5 -11 0 -14 -3 -6 -6z"/>
<path d="M2410 5445 c0 -8 2 -15 4 -15 2 0 6 7 10 15 3 8 1 15 -4 15 -6 0 -10
-7 -10 -15z"/>
<path d="M2519 5420 c-33 -5 -35 -7 -35 -40 l1 -35 117 4 118 3 -3 -33 c-1
-19 -6 -33 -10 -31 -4 1 -35 3 -69 4 -35 0 -48 3 -30 5 58 7 27 33 -40 33 -22
0 -28 -5 -28 -20 0 -12 -6 -20 -12 -19 -49 6 -48 8 -48 -147 l0 -145 103 3
102 3 0 -60 0 -60 -39 -3 -38 -3 4 45 3 46 -40 0 c-22 -1 -53 -7 -70 -13 -28
-12 -29 -16 -26 -68 1 -29 3 -54 4 -54 1 0 76 2 166 5 l164 5 2 287 2 287
-131 3 c-72 2 -147 1 -167 -2z m236 -190 c11 -5 14 -9 8 -9 -9 -1 -13 -25 -14
-83 0 -46 -4 -92 -9 -103 -6 -13 -9 15 -9 81 l-1 101 -62 10 -63 10 65 1 c36
0 74 -3 85 -8z"/>
<path d="M2411 5388 c-1 -33 2 -38 21 -38 19 0 20 1 6 13 -9 6 -19 23 -21 37
-3 18 -5 14 -6 -12z"/>
<path d="M7430 5132 l0 -289 143 -6 c78 -4 159 -9 180 -13 33 -6 37 -4 37 14
0 11 -4 24 -10 27 -5 3 -10 22 -10 41 0 28 -4 34 -21 34 -17 0 -19 3 -10 14
10 12 4 15 -34 18 -26 2 -48 1 -51 -1 -2 -2 -4 -26 -4 -53 0 -47 -1 -48 -30
-48 -29 0 -30 2 -30 43 0 86 2 87 97 87 l85 0 -4 140 -3 140 -25 1 c-14 1 -62
1 -107 2 l-83 0 0 29 0 28 100 0 100 0 0 34 0 35 -67 -1 c-38 -1 -110 2 -160
6 l-93 8 0 -290z m220 101 c0 -5 -15 -8 -32 -9 -85 -3 -84 -2 -87 -36 -1 -18
-4 -42 -6 -53 -1 -11 -3 -45 -4 -75 -2 -86 -21 -40 -21 53 0 42 -4 77 -9 77
-16 0 -22 -18 -9 -23 10 -4 10 -8 -1 -15 -8 -6 -9 -12 -3 -16 13 -8 3 -78 -17
-113 -12 -22 -20 158 -8 189 7 21 8 21 22 2 8 -10 15 -16 16 -11 1 4 3 12 4
17 1 6 3 12 4 15 2 8 151 6 151 -2z"/>
<path d="M7652 5314 c10 -10 75 -12 89 -3 9 6 -5 9 -40 9 -30 0 -52 -3 -49 -6z"/>
<path d="M8208 5168 c-3 -84 -1 -164 3 -178 3 -14 7 55 8 153 1 97 0 177 -3
177 -2 0 -6 -69 -8 -152z"/>
<path d="M2970 5290 c0 -5 5 -10 11 -10 5 0 7 5 4 10 -3 6 -8 10 -11 10 -2 0
-4 -4 -4 -10z"/>
<path d="M2975 5100 c6 -10 4 -12 -8 -7 -25 10 -37 -44 -37 -169 l0 -114 148
0 c81 0 184 3 230 7 l82 6 0 71 c0 39 -4 65 -8 58 -6 -9 -17 -2 -40 23 -17 20
-32 35 -34 33 -2 -2 -14 6 -26 18 -22 20 -41 26 -202 58 -42 8 -84 18 -94 22
-15 6 -17 4 -11 -6z"/>
<path d="M7783 5035 c0 -22 2 -30 4 -17 2 12 2 30 0 40 -3 9 -5 -1 -4 -23z"/>
<path d="M7180 5028 c-41 -9 -80 -15 -87 -13 -6 2 -14 -3 -17 -11 -3 -8 -9
-13 -13 -12 -19 5 -105 -43 -110 -62 -3 -11 -9 -17 -14 -15 -4 3 -15 -7 -23
-23 -8 -16 -22 -32 -31 -35 -8 -4 -15 -13 -15 -21 0 -9 17 -16 53 -20 100 -11
335 -19 372 -12 l37 7 -7 102 c-3 56 -8 109 -11 118 -6 20 -40 20 -134 -3z"/>
<path d="M7820 4896 c0 -19 -4 -38 -10 -41 -24 -15 -9 -35 24 -35 33 0 34 1
26 29 -4 15 -6 40 -3 55 4 21 2 26 -16 26 -17 0 -21 -6 -21 -34z"/>
<path d="M7814 4748 c0 -12 8 -18 24 -18 17 0 23 5 20 17 -4 23 -44 25 -44 1z"/>
<path d="M2422 4665 c0 -16 2 -22 5 -12 2 9 2 23 0 30 -3 6 -5 -1 -5 -18z"/>
<path d="M7996 4661 c-4 -5 -2 -21 4 -36 7 -19 7 -31 0 -40 -6 -7 -8 -19 -5
-28 5 -12 -10 -113 -30 -197 -2 -8 -4 -18 -4 -21 -1 -4 -9 -9 -18 -11 -12 -3
-30 -40 -57 -114 -21 -60 -47 -127 -57 -148 -10 -22 -19 -46 -19 -53 0 -7 -4
-13 -10 -13 -5 0 -10 -7 -10 -15 0 -17 -20 -56 -34 -66 -5 -4 -6 -11 -2 -17 3
-6 0 -14 -8 -19 -8 -4 -24 -30 -35 -57 -12 -26 -31 -62 -43 -79 -13 -17 -16
-27 -7 -22 7 5 5 -1 -5 -13 -11 -12 -24 -31 -30 -41 -10 -18 -44 -69 -109
-166 -15 -22 -42 -59 -60 -82 -17 -23 -45 -59 -62 -80 -57 -73 -128 -148 -139
-145 -14 3 42 -45 69 -60 11 -6 17 -7 13 -3 -4 4 21 39 55 79 98 112 307 398
307 420 0 3 18 35 40 71 103 168 234 473 260 605 32 160 32 159 53 154 11 -2
17 -1 13 3 -3 3 0 13 7 21 10 13 9 14 -2 7 -10 -5 -12 -4 -7 3 4 7 16 12 27
12 25 0 24 7 -3 32 -13 11 -16 16 -8 12 12 -6 13 -5 3 7 -11 14 -10 48 3 92 5
14 -1 17 -40 17 -25 0 -47 -4 -50 -9z m50 -90 c-7 -11 -46 -11 -46 0 0 7 41
17 49 13 1 -2 0 -7 -3 -13z"/>
<path d="M7912 4636 c7 -8 15 -12 17 -11 5 6 -10 25 -20 25 -5 0 -4 -6 3 -14z"/>
<path d="M7981 4604 c0 -11 3 -14 6 -6 3 7 2 16 -1 19 -3 4 -6 -2 -5 -13z"/>
<path d="M7581 4601 c-7 -5 -9 -11 -5 -14 5 -3 15 1 22 9 14 16 5 18 -17 5z"/>
<path d="M2856 4511 c-3 -5 1 -14 8 -20 12 -10 13 -8 9 8 -6 23 -9 25 -17 12z"/>
<path d="M6664 4335 c0 -49 1 -71 3 -48 2 23 2 64 0 90 -2 26 -3 8 -3 -42z"/>
<path d="M7249 3933 c-13 -16 -12 -17 4 -4 9 7 17 15 17 17 0 8 -8 3 -21 -13z"/>
<path d="M7706 3883 c-6 -14 -5 -15 5 -6 7 7 10 15 7 18 -3 3 -9 -2 -12 -12z"/>
<path d="M6959 3043 l-34 -38 38 34 c34 33 42 41 34 41 -2 0 -19 -17 -38 -37z"/>
<path d="M7372 3004 c-11 -12 -17 -12 -28 -3 -20 17 -49 -7 -33 -28 7 -7 12
-21 13 -31 1 -9 8 -27 16 -39 14 -21 14 -21 61 19 57 48 63 61 39 83 -18 16
-18 16 -13 -4 7 -26 -10 -27 -28 -1 -12 17 -16 17 -27 4z"/>
<path d="M6879 2973 l-24 -28 28 24 c25 23 32 31 24 31 -2 0 -14 -12 -28 -27z"/>
<path d="M6829 2933 c-13 -16 -12 -17 4 -4 9 7 17 15 17 17 0 8 -8 3 -21 -13z"/>
<path d="M6779 2893 c-13 -16 -12 -17 4 -4 16 13 21 21 13 21 -2 0 -10 -8 -17
-17z"/>
<path d="M5009 2873 c-2 -108 4 -219 12 -224 7 -4 4 -9 -5 -12 -12 -5 -16 -20
-16 -61 l0 -55 120 -3 c66 -2 120 -1 120 2 0 3 1 79 2 170 l2 165 -106 0 c-59
0 -110 4 -114 8 -4 4 46 7 110 7 90 0 117 3 114 13 -3 8 -39 13 -121 15 l-117
3 -1 -28z m221 -220 c0 -5 -30 -7 -67 -5 -119 5 -131 9 -30 10 53 1 97 -1 97
-5z"/>
<path d="M4938 2591 c-3 -86 -1 -101 14 -110 11 -7 78 -11 168 -11 131 0 149
2 143 15 -5 14 -24 15 -121 12 -172 -5 -161 -12 -164 96 -3 77 -6 92 -20 95
-15 3 -17 -9 -20 -97z"/>
<path d="M6905 2654 l-30 -26 33 22 c17 12 32 23 32 26 0 7 -4 5 -35 -22z"/>
<path d="M3360 2614 c0 -2 9 -8 19 -14 14 -7 22 -7 27 2 4 7 3 8 -4 4 -7 -4
-12 -3 -12 2 0 5 -7 9 -15 9 -8 0 -15 -2 -15 -3z"/>
<path d="M4630 2392 c0 -7 -4 -10 -10 -7 -5 3 -10 1 -10 -4 0 -6 3 -11 8 -11
4 0 44 -7 90 -15 141 -25 409 -36 618 -25 228 13 351 29 174 24 l-115 -3 102
12 c56 7 105 16 110 21 5 5 -2 7 -14 3 -13 -3 -26 -1 -29 4 -3 5 -22 8 -42 8
l-37 -2 40 -6 c42 -7 -169 -4 -389 5 -98 4 -131 3 -137 -7 -6 -10 -35 -10
-148 0 -77 7 -144 10 -150 7 -5 -4 -12 -2 -16 3 -8 14 -45 9 -45 -7z"/>
<path d="M5618 2143 c7 -3 16 -2 19 1 4 3 -2 6 -13 5 -11 0 -14 -3 -6 -6z"/>
<path d="M5323 2113 c9 -2 23 -2 30 0 6 3 -1 5 -18 5 -16 0 -22 -2 -12 -5z"/>
</g>
</svg>
